%TF.GenerationSoftware,KiCad,Pcbnew,10.0.6-1.fc44*%
%TF.CreationDate,2026-09-23T16:56:22+05:30*%
%TF.ProjectId,tracker,74726163-6b65-4722-9e6b-696361645f70,rev?*%
%TF.SameCoordinates,Original*%
%TF.FileFunction,Copper,L1,Top*%
%TF.FilePolarity,Positive*%
%FSLAX46Y46*%
G04 Gerber Fmt 4.6, Leading zero omitted, Abs format (unit mm)*
G04 Created by KiCad (PCBNEW 10.0.6-1.fc44) date 2026-09-23 16:56:22*
%MOMM*%
%LPD*%
G01*
G04 APERTURE LIST*
G04 Aperture macros list*
%AMRoundRect*
0 Rectangle with rounded corners*
0 $1 Rounding radius*
0 $2 $3 $4 $5 $6 $7 $8 $9 X,Y pos of 4 corners*
0 Add a 4 corners polygon primitive as box body*
4,1,4,$2,$3,$4,$5,$6,$7,$8,$9,$2,$3,0*
0 Add four circle primitives for the rounded corners*
1,1,$1+$1,$2,$3*
1,1,$1+$1,$4,$5*
1,1,$1+$1,$6,$7*
1,1,$1+$1,$8,$9*
0 Add four rect primitives between the rounded corners*
20,1,$1+$1,$2,$3,$4,$5,0*
20,1,$1+$1,$4,$5,$6,$7,0*
20,1,$1+$1,$6,$7,$8,$9,0*
20,1,$1+$1,$8,$9,$2,$3,0*%
G04 Aperture macros list end*
%TA.AperFunction,SMDPad,CuDef*%
%ADD10R,1.003300X0.558800*%
%TD*%
%TA.AperFunction,SMDPad,CuDef*%
%ADD11RoundRect,0.150000X0.512500X0.150000X-0.512500X0.150000X-0.512500X-0.150000X0.512500X-0.150000X0*%
%TD*%
%TA.AperFunction,SMDPad,CuDef*%
%ADD12RoundRect,0.150000X0.150000X-0.825000X0.150000X0.825000X-0.150000X0.825000X-0.150000X-0.825000X0*%
%TD*%
%TA.AperFunction,HeatsinkPad*%
%ADD13C,0.500000*%
%TD*%
%TA.AperFunction,HeatsinkPad*%
%ADD14R,3.300000X2.410000*%
%TD*%
%TA.AperFunction,SMDPad,CuDef*%
%ADD15RoundRect,0.500000X-0.875000X-0.500000X0.875000X-0.500000X0.875000X0.500000X-0.875000X0.500000X0*%
%TD*%
%TA.AperFunction,SMDPad,CuDef*%
%ADD16C,1.700000*%
%TD*%
%TA.AperFunction,SMDPad,CuDef*%
%ADD17RoundRect,0.275000X-0.275000X0.975000X-0.275000X-0.975000X0.275000X-0.975000X0.275000X0.975000X0*%
%TD*%
%TA.AperFunction,SMDPad,CuDef*%
%ADD18RoundRect,0.200000X-0.200000X-0.275000X0.200000X-0.275000X0.200000X0.275000X-0.200000X0.275000X0*%
%TD*%
%TA.AperFunction,SMDPad,CuDef*%
%ADD19RoundRect,0.225000X0.225000X0.250000X-0.225000X0.250000X-0.225000X-0.250000X0.225000X-0.250000X0*%
%TD*%
%TA.AperFunction,SMDPad,CuDef*%
%ADD20RoundRect,0.225000X-0.250000X0.225000X-0.250000X-0.225000X0.250000X-0.225000X0.250000X0.225000X0*%
%TD*%
%TA.AperFunction,SMDPad,CuDef*%
%ADD21RoundRect,0.225000X0.250000X-0.225000X0.250000X0.225000X-0.250000X0.225000X-0.250000X-0.225000X0*%
%TD*%
%TA.AperFunction,SMDPad,CuDef*%
%ADD22RoundRect,0.175000X-0.175000X-0.425000X0.175000X-0.425000X0.175000X0.425000X-0.175000X0.425000X0*%
%TD*%
%TA.AperFunction,SMDPad,CuDef*%
%ADD23RoundRect,0.190000X0.190000X0.410000X-0.190000X0.410000X-0.190000X-0.410000X0.190000X-0.410000X0*%
%TD*%
%TA.AperFunction,SMDPad,CuDef*%
%ADD24RoundRect,0.200000X0.200000X0.400000X-0.200000X0.400000X-0.200000X-0.400000X0.200000X-0.400000X0*%
%TD*%
%TA.AperFunction,SMDPad,CuDef*%
%ADD25RoundRect,0.175000X0.175000X0.425000X-0.175000X0.425000X-0.175000X-0.425000X0.175000X-0.425000X0*%
%TD*%
%TA.AperFunction,SMDPad,CuDef*%
%ADD26RoundRect,0.190000X-0.190000X-0.410000X0.190000X-0.410000X0.190000X0.410000X-0.190000X0.410000X0*%
%TD*%
%TA.AperFunction,SMDPad,CuDef*%
%ADD27RoundRect,0.200000X-0.200000X-0.400000X0.200000X-0.400000X0.200000X0.400000X-0.200000X0.400000X0*%
%TD*%
%TA.AperFunction,ComponentPad*%
%ADD28O,1.100000X1.700000*%
%TD*%
%TA.AperFunction,SMDPad,CuDef*%
%ADD29RoundRect,0.200000X0.200000X0.275000X-0.200000X0.275000X-0.200000X-0.275000X0.200000X-0.275000X0*%
%TD*%
%TA.AperFunction,SMDPad,CuDef*%
%ADD30RoundRect,0.218750X0.256250X-0.218750X0.256250X0.218750X-0.256250X0.218750X-0.256250X-0.218750X0*%
%TD*%
%TA.AperFunction,SMDPad,CuDef*%
%ADD31RoundRect,0.250000X1.425000X-0.362500X1.425000X0.362500X-1.425000X0.362500X-1.425000X-0.362500X0*%
%TD*%
%TA.AperFunction,SMDPad,CuDef*%
%ADD32RoundRect,0.087500X-0.087500X0.662500X-0.087500X-0.662500X0.087500X-0.662500X0.087500X0.662500X0*%
%TD*%
%TA.AperFunction,SMDPad,CuDef*%
%ADD33RoundRect,0.200000X-0.275000X0.200000X-0.275000X-0.200000X0.275000X-0.200000X0.275000X0.200000X0*%
%TD*%
%TA.AperFunction,SMDPad,CuDef*%
%ADD34RoundRect,0.200000X0.275000X-0.200000X0.275000X0.200000X-0.275000X0.200000X-0.275000X-0.200000X0*%
%TD*%
%TA.AperFunction,ComponentPad*%
%ADD35RoundRect,0.250000X-0.350000X-0.625000X0.350000X-0.625000X0.350000X0.625000X-0.350000X0.625000X0*%
%TD*%
%TA.AperFunction,ComponentPad*%
%ADD36O,1.200000X1.750000*%
%TD*%
%TA.AperFunction,SMDPad,CuDef*%
%ADD37RoundRect,0.087500X0.187500X0.087500X-0.187500X0.087500X-0.187500X-0.087500X0.187500X-0.087500X0*%
%TD*%
%TA.AperFunction,SMDPad,CuDef*%
%ADD38RoundRect,0.087500X0.087500X0.187500X-0.087500X0.187500X-0.087500X-0.187500X0.087500X-0.187500X0*%
%TD*%
%TA.AperFunction,ViaPad*%
%ADD39C,0.600000*%
%TD*%
%TA.AperFunction,Conductor*%
%ADD40C,0.200000*%
%TD*%
%TA.AperFunction,Conductor*%
%ADD41C,0.500000*%
%TD*%
G04 APERTURE END LIST*
D10*
%TO.P,Q1,6,6_6*%
%TO.N,Net-(U3-OD)*%
X159302551Y-112197449D03*
%TO.P,Q1,5,5_5*%
%TO.N,/Charging_and_Battery/PROTECT_MID*%
X159302551Y-113147450D03*
%TO.P,Q1,4,4_4*%
%TO.N,Net-(U3-OC)*%
X159302551Y-114097451D03*
%TO.P,Q1,3,3_3*%
%TO.N,GND*%
X156597451Y-114097451D03*
%TO.P,Q1,2,2_2*%
%TO.N,/Charging_and_Battery/PROTECT_MID*%
X156597451Y-113147450D03*
%TO.P,Q1,1,1_1*%
%TO.N,/Charging_and_Battery/BAT-*%
X156597451Y-112197449D03*
%TD*%
D11*
%TO.P,U3,1,OD_1*%
%TO.N,Net-(U3-OD)*%
X158137500Y-104450000D03*
%TO.P,U3,2,CS_2*%
%TO.N,Net-(U3-CS)*%
X158137500Y-103500000D03*
%TO.P,U3,3,OC_3*%
%TO.N,Net-(U3-OC)*%
X158137500Y-102550000D03*
%TO.P,U3,4,TD_4*%
%TO.N,unconnected-(U3-TD-Pad4)*%
X155862500Y-102550000D03*
%TO.P,U3,5,VCC_5*%
%TO.N,Net-(U3-VCC)*%
X155862500Y-103500000D03*
%TO.P,U3,6,GND_6*%
%TO.N,/Charging_and_Battery/BAT-*%
X155862500Y-104450000D03*
%TD*%
D12*
%TO.P,U5,1,TEMP_1*%
%TO.N,GND*%
X141270000Y-97595000D03*
%TO.P,U5,2,PROG_2*%
%TO.N,Net-(U5-PROG)*%
X142540000Y-97595000D03*
%TO.P,U5,3,GND_3*%
%TO.N,GND*%
X143810000Y-97595000D03*
%TO.P,U5,4,V_{CC}_4*%
%TO.N,USB_VBUS*%
X145080000Y-97595000D03*
%TO.P,U5,5,BAT_5*%
%TO.N,/Charging_and_Battery/BAT+*%
X145080000Y-92645000D03*
%TO.P,U5,6,~{STDBY}_6*%
%TO.N,Net-(D2-K)*%
X143810000Y-92645000D03*
%TO.P,U5,7,~{CHRG}_7*%
%TO.N,Net-(D1-K)*%
X142540000Y-92645000D03*
%TO.P,U5,8,CE_8*%
%TO.N,USB_VBUS*%
X141270000Y-92645000D03*
D13*
%TO.P,U5,9,EPAD_9*%
%TO.N,GND*%
X141975000Y-95820000D03*
X143175000Y-95820000D03*
X144375000Y-95820000D03*
D14*
X143175000Y-95120000D03*
D13*
X141975000Y-94420000D03*
X143175000Y-94420000D03*
X144375000Y-94420000D03*
%TD*%
D15*
%TO.P,U1,1,D0_1*%
%TO.N,Net-(U1-D0)*%
X112186400Y-81348300D03*
%TO.P,U1,2,D1_2*%
%TO.N,unconnected-(U1-D1-Pad2)*%
X112186400Y-83888300D03*
%TO.P,U1,3,D2_3*%
%TO.N,Net-(U1-D2)*%
X112186400Y-86428300D03*
%TO.P,U1,4,D3_4*%
%TO.N,unconnected-(U1-D3-Pad4)*%
X112186400Y-88968300D03*
%TO.P,U1,5,D4_5*%
%TO.N,SDA*%
X112186400Y-91508300D03*
%TO.P,U1,6,D5_6*%
%TO.N,SCL*%
X112186400Y-94048300D03*
%TO.P,U1,7,D6_7*%
%TO.N,unconnected-(U1-D6-Pad7)*%
X112186400Y-96588300D03*
%TO.P,U1,8,D7_8*%
%TO.N,unconnected-(U1-D7-Pad8)*%
X128351400Y-96588300D03*
%TO.P,U1,9,D8_9*%
%TO.N,unconnected-(U1-D8-Pad9)*%
X128351400Y-94048300D03*
%TO.P,U1,10,D9_10*%
%TO.N,unconnected-(U1-D9-Pad10)*%
X128351400Y-91508300D03*
%TO.P,U1,11,D10_11*%
%TO.N,unconnected-(U1-D10-Pad11)*%
X128351400Y-88968300D03*
%TO.P,U1,12,3V3_OUT_12*%
%TO.N,3v3*%
X128351400Y-86428300D03*
%TO.P,U1,13,GND_13*%
%TO.N,GND*%
X128351400Y-83888300D03*
%TO.P,U1,14,VBUS_14*%
%TO.N,unconnected-(U1-VBUS-Pad14)*%
X128351400Y-81348300D03*
D16*
%TO.P,U1,15,MTDI_15*%
%TO.N,unconnected-(U1-MTDI-Pad15)*%
X118968000Y-80326800D03*
%TO.P,U1,16,MTDO_16*%
%TO.N,unconnected-(U1-MTDO-Pad16)*%
X121508000Y-80326800D03*
%TO.P,U1,17,EN_17*%
%TO.N,unconnected-(U1-EN-Pad17)*%
X118968000Y-82866800D03*
%TO.P,U1,18,GND_18*%
%TO.N,unconnected-(U1-GND-Pad18)*%
X121508000Y-82866800D03*
%TO.P,U1,19,MTMS_19*%
%TO.N,unconnected-(U1-MTMS-Pad19)*%
X118968000Y-85406800D03*
%TO.P,U1,20,MTCK_20*%
%TO.N,unconnected-(U1-MTCK-Pad20)*%
X121508000Y-85406800D03*
%TO.P,U1,21,BOOT_21*%
%TO.N,unconnected-(U1-BOOT-Pad21)*%
X118968000Y-87946800D03*
%TO.P,U1,22,3V3_OUT_22*%
%TO.N,unconnected-(U1-3V3_OUT-Pad22)*%
X121415400Y-87890000D03*
D17*
%TO.P,U1,23,VBAT_23*%
%TO.N,/Shunt_Output*%
X118460000Y-94500000D03*
%TO.P,U1,24,GND_24*%
%TO.N,GND*%
X121000000Y-94500000D03*
%TD*%
D18*
%TO.P,R7,1*%
%TO.N,/Charging_and_Battery/BAT+*%
X150000000Y-103312500D03*
%TO.P,R7,2*%
%TO.N,Net-(U3-VCC)*%
X151650000Y-103312500D03*
%TD*%
D19*
%TO.P,C2,1*%
%TO.N,GND*%
X103000000Y-105500000D03*
%TO.P,C2,2*%
%TO.N,3v3*%
X101450000Y-105500000D03*
%TD*%
D20*
%TO.P,C3,1*%
%TO.N,3v3*%
X119500000Y-121725000D03*
%TO.P,C3,2*%
%TO.N,GND*%
X119500000Y-123275000D03*
%TD*%
D21*
%TO.P,C6,1*%
%TO.N,GND*%
X146000000Y-109275000D03*
%TO.P,C6,2*%
%TO.N,/Charging_and_Battery/BAT+*%
X146000000Y-107725000D03*
%TD*%
D19*
%TO.P,C1,1*%
%TO.N,GND*%
X103000000Y-101000000D03*
%TO.P,C1,2*%
%TO.N,3v3*%
X101450000Y-101000000D03*
%TD*%
D22*
%TO.P,J1,A5,CC1_A5*%
%TO.N,Net-(J1-CC1)*%
X157500000Y-78500000D03*
D23*
%TO.P,J1,A9,VBUS_A9*%
%TO.N,USB_VBUS*%
X159520000Y-78500000D03*
D24*
%TO.P,J1,A12,GND_A12*%
%TO.N,GND*%
X160750000Y-78500000D03*
D25*
%TO.P,J1,B5,CC2_B5*%
%TO.N,Net-(J1-CC2)*%
X158500000Y-78500000D03*
D26*
%TO.P,J1,B9,VBUS_B9*%
%TO.N,USB_VBUS*%
X156480000Y-78500000D03*
D27*
%TO.P,J1,B12,GND_B12*%
%TO.N,GND*%
X155250000Y-78500000D03*
D28*
%TO.P,J1,SH,SHIELD_SH*%
X153680000Y-78580000D03*
X153680000Y-82380000D03*
X162320000Y-78580000D03*
X162320000Y-82380000D03*
%TD*%
D29*
%TO.P,R6,1*%
%TO.N,Net-(J1-CC1)*%
X150095000Y-90430000D03*
%TO.P,R6,2*%
%TO.N,GND*%
X148445000Y-90430000D03*
%TD*%
D30*
%TO.P,D1,1,K_1*%
%TO.N,Net-(D1-K)*%
X142040000Y-89773750D03*
%TO.P,D1,2,A_2*%
%TO.N,Net-(D1-A)*%
X142040000Y-88198750D03*
%TD*%
D31*
%TO.P,R1,1*%
%TO.N,/Charging_and_Battery/BAT+*%
X133537500Y-116462500D03*
%TO.P,R1,2*%
%TO.N,/Shunt_Output*%
X133537500Y-110537500D03*
%TD*%
D32*
%TO.P,U4,1,A1_1*%
%TO.N,GND*%
X124500000Y-111400000D03*
%TO.P,U4,2,A0_2*%
X124000000Y-111400000D03*
%TO.P,U4,3,Alert_3*%
%TO.N,Net-(U1-D0)*%
X123500000Y-111400000D03*
%TO.P,U4,4,SDA_4*%
%TO.N,SDA*%
X123000000Y-111400000D03*
%TO.P,U4,5,SCL_5*%
%TO.N,SCL*%
X122500000Y-111400000D03*
%TO.P,U4,6,VS+_6*%
%TO.N,3v3*%
X122500000Y-115600000D03*
%TO.P,U4,7,GND_7*%
%TO.N,GND*%
X123000000Y-115600000D03*
%TO.P,U4,8,VBUS_8*%
%TO.N,/Shunt_Output*%
X123500000Y-115600000D03*
%TO.P,U4,9,VIN-_9*%
X124000000Y-115600000D03*
%TO.P,U4,10,VIN+_10*%
%TO.N,/Charging_and_Battery/BAT+*%
X124500000Y-115600000D03*
%TD*%
D20*
%TO.P,C7,1*%
%TO.N,Net-(U3-VCC)*%
X152000000Y-108725000D03*
%TO.P,C7,2*%
%TO.N,/Charging_and_Battery/BAT-*%
X152000000Y-110275000D03*
%TD*%
D33*
%TO.P,R4,1*%
%TO.N,Net-(U5-PROG)*%
X142500000Y-101695000D03*
%TO.P,R4,2*%
%TO.N,GND*%
X142500000Y-103345000D03*
%TD*%
%TO.P,R8,1*%
%TO.N,USB_VBUS*%
X142000000Y-84151250D03*
%TO.P,R8,2*%
%TO.N,Net-(D1-A)*%
X142000000Y-85801250D03*
%TD*%
D29*
%TO.P,R5,1*%
%TO.N,Net-(J1-CC2)*%
X149825000Y-85000000D03*
%TO.P,R5,2*%
%TO.N,GND*%
X148175000Y-85000000D03*
%TD*%
D33*
%TO.P,R2,1*%
%TO.N,SCL*%
X110500000Y-119175000D03*
%TO.P,R2,2*%
%TO.N,3v3*%
X110500000Y-120825000D03*
%TD*%
D30*
%TO.P,D2,1,K_1*%
%TO.N,Net-(D2-K)*%
X144630000Y-89773750D03*
%TO.P,D2,2,A_2*%
%TO.N,Net-(D2-A)*%
X144630000Y-88198750D03*
%TD*%
D34*
%TO.P,R3,1*%
%TO.N,3v3*%
X104000000Y-124150000D03*
%TO.P,R3,2*%
%TO.N,SDA*%
X104000000Y-122500000D03*
%TD*%
D35*
%TO.P,BT1,1,+_1*%
%TO.N,/Charging_and_Battery/BAT+*%
X141500000Y-115500000D03*
D36*
%TO.P,BT1,2,-_2*%
%TO.N,/Charging_and_Battery/BAT-*%
X143500000Y-115500000D03*
%TD*%
D37*
%TO.P,U2,1,VDD_IO_1*%
%TO.N,3v3*%
X103225000Y-94725000D03*
%TO.P,U2,2,NC_2*%
%TO.N,unconnected-(U2-NC-Pad2)*%
X103225000Y-94225000D03*
%TO.P,U2,3,NC_3*%
%TO.N,unconnected-(U2-NC-Pad3)*%
X103225000Y-93725000D03*
%TO.P,U2,4,SPC_4*%
%TO.N,SCL*%
X103225000Y-93225000D03*
%TO.P,U2,5,GND_5*%
%TO.N,GND*%
X103225000Y-92725000D03*
D38*
%TO.P,U2,6,SDI_6*%
%TO.N,SDA*%
X102500000Y-92500000D03*
%TO.P,U2,7,SDO_7*%
%TO.N,unconnected-(U2-SDO-Pad7)*%
X102000000Y-92500000D03*
%TO.P,U2,8,CS_8*%
%TO.N,3v3*%
X101500000Y-92500000D03*
D37*
%TO.P,U2,9,INT2_9*%
%TO.N,unconnected-(U2-INT2-Pad9)*%
X100775000Y-92725000D03*
%TO.P,U2,10,GND_10*%
%TO.N,GND*%
X100775000Y-93225000D03*
%TO.P,U2,11,INT1_11*%
%TO.N,Net-(U1-D2)*%
X100775000Y-93725000D03*
%TO.P,U2,12,GND_12*%
%TO.N,GND*%
X100775000Y-94225000D03*
%TO.P,U2,13,ADC3_13*%
%TO.N,unconnected-(U2-ADC3-Pad13)*%
X100775000Y-94725000D03*
D38*
%TO.P,U2,14,VDD_14*%
%TO.N,3v3*%
X101500000Y-94950000D03*
%TO.P,U2,15,ADC2_15*%
%TO.N,unconnected-(U2-ADC2-Pad15)*%
X102000000Y-94950000D03*
%TO.P,U2,16,ADC1_16*%
%TO.N,unconnected-(U2-ADC1-Pad16)*%
X102500000Y-94950000D03*
%TD*%
D20*
%TO.P,C5,1*%
%TO.N,USB_VBUS*%
X158000000Y-88725000D03*
%TO.P,C5,2*%
%TO.N,GND*%
X158000000Y-90275000D03*
%TD*%
D33*
%TO.P,R10,1*%
%TO.N,USB_VBUS*%
X144510000Y-84151250D03*
%TO.P,R10,2*%
%TO.N,Net-(D2-A)*%
X144510000Y-85801250D03*
%TD*%
%TO.P,R9,1*%
%TO.N,Net-(U3-CS)*%
X157000000Y-107500000D03*
%TO.P,R9,2*%
%TO.N,/Charging_and_Battery/PROTECT_MID*%
X157000000Y-109150000D03*
%TD*%
D39*
%TO.N,GND*%
X100000000Y-98000000D03*
X102000000Y-82000000D03*
X156500000Y-125000000D03*
X99000000Y-95000000D03*
X147500000Y-112000000D03*
X135500000Y-83500000D03*
X104500000Y-92500000D03*
X103000000Y-99000000D03*
X99000000Y-92000000D03*
X152430000Y-89345000D03*
X150000000Y-119000000D03*
X156500000Y-98000000D03*
X142500000Y-105500000D03*
X99000000Y-96250003D03*
X139500000Y-96000000D03*
%TO.N,USB_VBUS*%
X159250000Y-80535000D03*
X156250000Y-80535000D03*
%TO.N,Net-(U1-D0)*%
X119000000Y-107000000D03*
X109500000Y-83500000D03*
%TO.N,SDA*%
X122000000Y-108000000D03*
X105500000Y-121000000D03*
X107500000Y-92500000D03*
%TO.N,SCL*%
X110500000Y-118500000D03*
X110500000Y-114000000D03*
%TO.N,3v3*%
X109000000Y-121500000D03*
X119500000Y-119500000D03*
X120000000Y-114000000D03*
X133864950Y-88233578D03*
X106000000Y-124000000D03*
%TO.N,/Shunt_Output*%
X125500000Y-120000000D03*
X133000000Y-107500000D03*
X123000000Y-89000000D03*
X126000000Y-116500000D03*
%TO.N,Net-(J1-CC2)*%
X150469668Y-85969668D03*
X158700000Y-81500000D03*
%TD*%
%TO.N,Net-(U1-D0)*%
D40*
X123500000Y-111400000D02*
X123500000Y-108000000D01*
X123500000Y-108000000D02*
X122500000Y-107000000D01*
X122500000Y-107000000D02*
X119000000Y-107000000D01*
%TO.N,3v3*%
X128923100Y-87000000D02*
X128351400Y-86428300D01*
X133582106Y-88233578D02*
X132248528Y-86900000D01*
X129651472Y-87000000D02*
X128923100Y-87000000D01*
X129751472Y-86900000D02*
X129651472Y-87000000D01*
X132248528Y-86900000D02*
X129751472Y-86900000D01*
X133864950Y-88233578D02*
X133582106Y-88233578D01*
%TO.N,USB_VBUS*%
X145080000Y-97595000D02*
X145080000Y-105440000D01*
X145080000Y-105440000D02*
X142000000Y-108520000D01*
X142000000Y-108520000D02*
X139020000Y-108520000D01*
X138000000Y-107500000D02*
X138000000Y-91520000D01*
X139020000Y-108520000D02*
X138000000Y-107500000D01*
%TO.N,GND*%
X158000000Y-90275000D02*
X157725000Y-90550000D01*
X157000000Y-98000000D02*
X156500000Y-98000000D01*
%TO.N,USB_VBUS*%
X150725000Y-95725000D02*
X151000000Y-95725000D01*
%TO.N,GND*%
X157725000Y-90550000D02*
X157725000Y-97275000D01*
%TO.N,USB_VBUS*%
X147000000Y-92000000D02*
X150725000Y-95725000D01*
X151000000Y-95725000D02*
X158000000Y-88725000D01*
X159250000Y-86250000D02*
X158000000Y-87500000D01*
X146000000Y-81000000D02*
X147000000Y-82000000D01*
X144500000Y-81000000D02*
X146000000Y-81000000D01*
X159250000Y-80535000D02*
X159250000Y-86250000D01*
X158000000Y-87500000D02*
X158000000Y-88725000D01*
X147000000Y-82000000D02*
X147000000Y-92000000D01*
%TO.N,GND*%
X157725000Y-97275000D02*
X157000000Y-98000000D01*
X153500000Y-119000000D02*
X147500000Y-125000000D01*
X147500000Y-125000000D02*
X143000000Y-125000000D01*
X150000000Y-119000000D02*
X153500000Y-119000000D01*
X153500000Y-119000000D02*
X156597451Y-115902549D01*
X156597451Y-115902549D02*
X156597451Y-114097451D01*
%TO.N,/Charging_and_Battery/PROTECT_MID*%
X156597451Y-113147450D02*
X157500000Y-113147450D01*
X157000000Y-109150000D02*
X158000000Y-110150000D01*
X158000000Y-110150000D02*
X158000000Y-112647450D01*
X158000000Y-112647450D02*
X157500000Y-113147450D01*
%TO.N,Net-(U3-OC)*%
X158137500Y-102550000D02*
X162550000Y-102550000D01*
X162550000Y-102550000D02*
X163500000Y-103500000D01*
X163500000Y-103500000D02*
X163500000Y-113000000D01*
X163500000Y-113000000D02*
X162402549Y-114097451D01*
X162402549Y-114097451D02*
X159302551Y-114097451D01*
%TO.N,Net-(U3-OD)*%
X160302551Y-112197449D02*
X161000000Y-111500000D01*
X159302551Y-112197449D02*
X160302551Y-112197449D01*
X161000000Y-111500000D02*
X161000000Y-107312500D01*
%TO.N,/Charging_and_Battery/BAT-*%
D41*
X156597451Y-112197449D02*
X154675002Y-110275000D01*
X154675002Y-110275000D02*
X152000000Y-110275000D01*
%TO.N,Net-(U3-CS)*%
D40*
X157000000Y-107500000D02*
X157000000Y-103975001D01*
%TO.N,GND*%
X156500000Y-114000000D02*
X156597451Y-114097451D01*
%TO.N,/Charging_and_Battery/PROTECT_MID*%
X157500000Y-113147450D02*
X158000000Y-113147450D01*
X158000000Y-113147450D02*
X159302551Y-113147450D01*
%TO.N,Net-(U3-OD)*%
X161000000Y-107312500D02*
X158137500Y-104450000D01*
%TO.N,Net-(U3-CS)*%
X158137500Y-103500000D02*
X157475001Y-103500000D01*
X157475001Y-103500000D02*
X157000000Y-103975001D01*
%TO.N,Net-(U3-VCC)*%
X155675000Y-103312500D02*
X155862500Y-103500000D01*
X151650000Y-103312500D02*
X151650000Y-108375000D01*
X151650000Y-108375000D02*
X152000000Y-108725000D01*
X151650000Y-103312500D02*
X155675000Y-103312500D01*
%TO.N,/Charging_and_Battery/BAT-*%
D41*
X143500000Y-115500000D02*
X149500000Y-115500000D01*
X155862500Y-104450000D02*
X155862500Y-106412500D01*
X152000000Y-110275000D02*
X152000000Y-113000000D01*
X149500000Y-115500000D02*
X152000000Y-113000000D01*
X155862500Y-106412500D02*
X152000000Y-110275000D01*
%TO.N,GND*%
D40*
X142500000Y-103345000D02*
X142500000Y-105500000D01*
X124500000Y-111400000D02*
X124000000Y-111400000D01*
X103000000Y-111500000D02*
X104500000Y-113000000D01*
X103000000Y-107925000D02*
X103000000Y-111500000D01*
X123000000Y-94500000D02*
X124000000Y-93500000D01*
X103000000Y-100000000D02*
X103000000Y-99000000D01*
X124000000Y-86500000D02*
X126611700Y-83888300D01*
X107000000Y-116500000D02*
X106000000Y-115500000D01*
X134611700Y-83888300D02*
X128351400Y-83888300D01*
X121000000Y-94500000D02*
X123000000Y-94500000D01*
X148445000Y-87945000D02*
X148445000Y-88055000D01*
X153680000Y-82380000D02*
X153680000Y-78580000D01*
X99000000Y-96250003D02*
X99000000Y-95000000D01*
X104275000Y-92725000D02*
X104500000Y-92500000D01*
X152085000Y-89000000D02*
X149390000Y-89000000D01*
X141975000Y-94420000D02*
X143175000Y-94420000D01*
X143175000Y-95820000D02*
X143175000Y-96960000D01*
X119500000Y-123275000D02*
X118275000Y-123275000D01*
X162240000Y-78500000D02*
X162320000Y-78580000D01*
X143810000Y-97595000D02*
X143810000Y-95755000D01*
X139655000Y-100500000D02*
X142500000Y-103345000D01*
X143175000Y-94420000D02*
X144375000Y-94420000D01*
X144375000Y-95820000D02*
X143175000Y-95820000D01*
X139655000Y-100000000D02*
X139655000Y-96155000D01*
X126611700Y-83888300D02*
X128351400Y-83888300D01*
X162320000Y-78450000D02*
X162320000Y-82630000D01*
X99000000Y-96250003D02*
X99027815Y-96250003D01*
X141270000Y-97595000D02*
X141270000Y-96525000D01*
X135000000Y-83500000D02*
X134611700Y-83888300D01*
X111500000Y-116500000D02*
X107000000Y-116500000D01*
X148175000Y-85000000D02*
X148175000Y-87675000D01*
X143175000Y-96960000D02*
X143810000Y-97595000D01*
X124000000Y-93500000D02*
X124000000Y-86500000D01*
X124500000Y-111400000D02*
X124500000Y-113277818D01*
X99000000Y-92000000D02*
X100225000Y-93225000D01*
X126500000Y-125000000D02*
X130000000Y-125000000D01*
X121225000Y-123275000D02*
X123000000Y-121500000D01*
X123000000Y-114777818D02*
X123000000Y-115600000D01*
X119500000Y-123275000D02*
X121225000Y-123275000D01*
X146000000Y-110500000D02*
X147500000Y-112000000D01*
X155170000Y-78580000D02*
X155250000Y-78500000D01*
X141975000Y-94420000D02*
X141975000Y-95820000D01*
X160750000Y-78500000D02*
X162240000Y-78500000D01*
X123000000Y-115600000D02*
X123000000Y-121500000D01*
X118275000Y-123275000D02*
X111500000Y-116500000D01*
X152430000Y-89345000D02*
X152085000Y-89000000D01*
X139655000Y-99210000D02*
X139655000Y-100000000D01*
X135500000Y-83500000D02*
X135000000Y-83500000D01*
X141270000Y-97595000D02*
X139655000Y-99210000D01*
X103000000Y-101925000D02*
X103000000Y-100000000D01*
X143175000Y-95820000D02*
X141975000Y-95820000D01*
X100775000Y-94225000D02*
X100275000Y-94225000D01*
X148445000Y-90430000D02*
X148445000Y-88055000D01*
X103225000Y-92725000D02*
X104275000Y-92725000D01*
X148175000Y-87675000D02*
X148445000Y-87945000D01*
X149390000Y-89000000D02*
X148445000Y-88055000D01*
X126500000Y-125000000D02*
X123000000Y-121500000D01*
X139655000Y-96155000D02*
X139500000Y-96000000D01*
X139655000Y-100000000D02*
X139655000Y-100500000D01*
X124500000Y-113277818D02*
X123000000Y-114777818D01*
X143175000Y-95820000D02*
X143175000Y-94420000D01*
X99750000Y-95527818D02*
X99750000Y-94750000D01*
X143810000Y-95755000D02*
X143175000Y-95120000D01*
X153680000Y-78580000D02*
X155170000Y-78580000D01*
X100275000Y-94225000D02*
X99750000Y-94750000D01*
X100225000Y-93225000D02*
X100775000Y-93225000D01*
X152430000Y-89345000D02*
X153680000Y-88095000D01*
X153680000Y-88095000D02*
X153680000Y-82380000D01*
X141270000Y-96525000D02*
X141975000Y-95820000D01*
X146000000Y-109275000D02*
X146000000Y-110500000D01*
X99027815Y-96250003D02*
X99750000Y-95527818D01*
X103000000Y-107925000D02*
X103000000Y-101925000D01*
X144375000Y-94420000D02*
X144375000Y-95820000D01*
%TO.N,Net-(U5-PROG)*%
X142540000Y-101655000D02*
X142500000Y-101695000D01*
X142540000Y-101980000D02*
X142500000Y-102020000D01*
X142540000Y-97595000D02*
X142540000Y-101655000D01*
%TO.N,USB_VBUS*%
X144510000Y-84151250D02*
X144510000Y-83831250D01*
X145080000Y-98550000D02*
X144975000Y-98655000D01*
X139000000Y-81000000D02*
X142000000Y-81000000D01*
X145080000Y-97595000D02*
X145080000Y-98550000D01*
X142000000Y-81000000D02*
X144500000Y-81000000D01*
X144510000Y-81010000D02*
X144500000Y-81000000D01*
X159250000Y-80535000D02*
X159520000Y-80265000D01*
X159520000Y-80265000D02*
X159520000Y-78500000D01*
X144510000Y-84151250D02*
X144510000Y-81010000D01*
X156480000Y-78500000D02*
X156480000Y-80305000D01*
X138000000Y-91520000D02*
X138000000Y-82000000D01*
X142000000Y-84151250D02*
X142000000Y-81000000D01*
X141270000Y-92645000D02*
X139125000Y-92645000D01*
X139125000Y-92645000D02*
X138000000Y-91520000D01*
X144510000Y-83831250D02*
X144540000Y-83801250D01*
X156480000Y-80305000D02*
X156250000Y-80535000D01*
X138000000Y-82000000D02*
X139000000Y-81000000D01*
%TO.N,/Charging_and_Battery/BAT+*%
D41*
X133537500Y-116462500D02*
X140537500Y-116462500D01*
X140537500Y-116462500D02*
X141500000Y-115500000D01*
X150000000Y-97565000D02*
X150000000Y-103312500D01*
X142362500Y-111362500D02*
X146000000Y-107725000D01*
X145080000Y-92645000D02*
X150000000Y-97565000D01*
X146000000Y-107312500D02*
X150000000Y-103312500D01*
X141500000Y-112225000D02*
X142362500Y-111362500D01*
X133537500Y-116462500D02*
X131000000Y-119000000D01*
X131000000Y-119000000D02*
X126000000Y-119000000D01*
X126000000Y-119000000D02*
X124575000Y-117575000D01*
X141500000Y-115500000D02*
X141500000Y-112225000D01*
X124575000Y-117575000D02*
X124575000Y-115600000D01*
%TO.N,Net-(D2-K)*%
D40*
X144510000Y-89848750D02*
X144445000Y-89848750D01*
X144630000Y-89773750D02*
X143810000Y-90593750D01*
X143810000Y-90593750D02*
X143810000Y-92645000D01*
X144090000Y-92365000D02*
X143810000Y-92645000D01*
%TO.N,Net-(D1-K)*%
X142540000Y-90928750D02*
X142540000Y-92645000D01*
X142000000Y-90308750D02*
X142580000Y-90888750D01*
X142000000Y-89848750D02*
X142000000Y-90308750D01*
X142580000Y-90888750D02*
X142540000Y-90928750D01*
%TO.N,Net-(U1-D0)*%
X109500000Y-82000000D02*
X111534700Y-82000000D01*
X109500000Y-83500000D02*
X109500000Y-82000000D01*
X111534700Y-82000000D02*
X112186400Y-81348300D01*
%TO.N,Net-(U1-D2)*%
X98225000Y-93725000D02*
X100775000Y-93725000D01*
X98000000Y-93500000D02*
X98225000Y-93725000D01*
X98571700Y-86428300D02*
X98000000Y-87000000D01*
X112186400Y-86428300D02*
X98571700Y-86428300D01*
X98000000Y-87000000D02*
X98000000Y-93500000D01*
%TO.N,SDA*%
X123000000Y-109000000D02*
X123000000Y-111400000D01*
X112186400Y-91508300D02*
X108491700Y-91508300D01*
X108491700Y-91508300D02*
X106500000Y-91508300D01*
X106500000Y-91508300D02*
X103491700Y-91508300D01*
X122000000Y-108000000D02*
X123000000Y-109000000D01*
X103491700Y-91508300D02*
X102500000Y-92500000D01*
X107500000Y-92500000D02*
X108491700Y-91508300D01*
X104000000Y-122500000D02*
X105500000Y-121000000D01*
%TO.N,SCL*%
X110500000Y-112500000D02*
X111000000Y-112000000D01*
X106000000Y-95000000D02*
X106000000Y-107000000D01*
X110500000Y-114000000D02*
X110500000Y-112500000D01*
X111363100Y-93225000D02*
X112186400Y-94048300D01*
X103225000Y-93225000D02*
X106000000Y-93225000D01*
X107000000Y-93225000D02*
X111363100Y-93225000D01*
X107775000Y-93225000D02*
X106000000Y-95000000D01*
X121900000Y-112000000D02*
X111000000Y-112000000D01*
X122500000Y-111400000D02*
X121900000Y-112000000D01*
X106000000Y-93225000D02*
X107000000Y-93225000D01*
X106000000Y-107000000D02*
X111000000Y-112000000D01*
X110500000Y-119175000D02*
X110500000Y-118500000D01*
%TO.N,3v3*%
X120000000Y-114500000D02*
X120000000Y-114000000D01*
X122500000Y-115600000D02*
X121100000Y-115600000D01*
X101500000Y-121650000D02*
X101500000Y-96000000D01*
X105850000Y-124150000D02*
X104000000Y-124150000D01*
X109825000Y-121500000D02*
X110500000Y-120825000D01*
X104000000Y-124150000D02*
X101500000Y-121650000D01*
X103225000Y-95050432D02*
X102275432Y-96000000D01*
X101500000Y-94950000D02*
X101500000Y-96000000D01*
X103225000Y-94725000D02*
X103225000Y-95050432D01*
X121100000Y-115600000D02*
X120000000Y-114500000D01*
X102275432Y-96000000D02*
X101500000Y-96000000D01*
X110500000Y-121000000D02*
X110500000Y-120825000D01*
X106000000Y-124000000D02*
X105850000Y-124150000D01*
X101500000Y-92500000D02*
X101500000Y-94950000D01*
X119500000Y-119500000D02*
X119500000Y-121725000D01*
X109000000Y-121500000D02*
X109825000Y-121500000D01*
%TO.N,/Shunt_Output*%
D41*
X128049936Y-110537500D02*
X128049936Y-110608210D01*
X133537500Y-110537500D02*
X130000000Y-110537500D01*
X130000000Y-110537500D02*
X128049936Y-110537500D01*
X126329073Y-112329073D02*
X126329073Y-116170927D01*
X130000000Y-110500000D02*
X130000000Y-110537500D01*
X123000000Y-89960000D02*
X118460000Y-94500000D01*
X133000000Y-107500000D02*
X130000000Y-110500000D01*
X128049936Y-110608210D02*
X126329073Y-112329073D01*
X123575000Y-118075000D02*
X123575000Y-115600000D01*
X125500000Y-120000000D02*
X123575000Y-118075000D01*
X123000000Y-89000000D02*
X123000000Y-89960000D01*
X126329073Y-116170927D02*
X126000000Y-116500000D01*
X126329073Y-112329073D02*
X123925000Y-114733146D01*
%TO.N,Net-(J1-CC1)*%
D40*
X152380000Y-92000000D02*
X150810000Y-90430000D01*
X154069797Y-91189797D02*
X153259594Y-92000000D01*
X153259594Y-92000000D02*
X152380000Y-92000000D01*
X157500000Y-78500000D02*
X157500000Y-82044594D01*
X154069797Y-85474797D02*
X154069797Y-91189797D01*
X157500000Y-82044594D02*
X154069797Y-85474797D01*
X150810000Y-90430000D02*
X150095000Y-90430000D01*
%TO.N,Net-(J1-CC2)*%
X158719668Y-78719668D02*
X158500000Y-78500000D01*
X158700000Y-80307182D02*
X158719668Y-80287514D01*
X149825000Y-85000000D02*
X149825000Y-85325000D01*
X158719668Y-80287514D02*
X158719668Y-78719668D01*
X149825000Y-85325000D02*
X150469668Y-85969668D01*
X158700000Y-81500000D02*
X158700000Y-80307182D01*
%TO.N,Net-(D1-A)*%
X142040000Y-85801250D02*
X142040000Y-86761250D01*
X142000000Y-86801250D02*
X142000000Y-88198750D01*
X142040000Y-86761250D02*
X142000000Y-86801250D01*
X142000000Y-86793750D02*
X142000000Y-86801250D01*
%TO.N,Net-(D2-A)*%
X144630000Y-86801250D02*
X144510000Y-86921250D01*
X144630000Y-86938750D02*
X144630000Y-86801250D01*
X144510000Y-86921250D02*
X144510000Y-88198750D01*
X144630000Y-86801250D02*
X144630000Y-85801250D01*
%TD*%
%TA.AperFunction,Conductor*%
%TO.N,GND*%
G36*
X164943039Y-124019685D02*
G01*
X164988794Y-124072489D01*
X165000000Y-124124000D01*
X165000000Y-126376000D01*
X164980315Y-126443039D01*
X164927511Y-126488794D01*
X164876000Y-126500000D01*
X108124000Y-126500000D01*
X108056961Y-126480315D01*
X108011206Y-126427511D01*
X108000000Y-126376000D01*
X108000000Y-124124000D01*
X108019685Y-124056961D01*
X108072489Y-124011206D01*
X108124000Y-124000000D01*
X164876000Y-124000000D01*
X164943039Y-124019685D01*
G37*
%TD.AperFunction*%
%TD*%
%TA.AperFunction,Conductor*%
%TO.N,GND*%
G36*
X106353235Y-108680008D02*
G01*
X106398732Y-108732542D01*
X109461114Y-115415146D01*
X109471148Y-115484292D01*
X109442206Y-115547885D01*
X109429215Y-115560841D01*
X102716633Y-121330566D01*
X102652962Y-121359337D01*
X102583844Y-121349118D01*
X102531223Y-121303152D01*
X102511860Y-121240183D01*
X102219446Y-111311444D01*
X102237148Y-111243858D01*
X102276540Y-111203363D01*
X106219157Y-108679762D01*
X106286232Y-108660201D01*
X106353235Y-108680008D01*
G37*
%TD.AperFunction*%
%TD*%
%TA.AperFunction,Conductor*%
%TO.N,GND*%
G36*
X100443039Y-97519685D02*
G01*
X100488794Y-97572489D01*
X100500000Y-97624000D01*
X100500000Y-126376000D01*
X100480315Y-126443039D01*
X100427511Y-126488794D01*
X100376000Y-126500000D01*
X98121881Y-126500000D01*
X98054842Y-126480315D01*
X98009087Y-126427511D01*
X97997899Y-126378138D01*
X97502175Y-97626138D01*
X97520701Y-97558769D01*
X97572709Y-97512110D01*
X97626157Y-97500000D01*
X100376000Y-97500000D01*
X100443039Y-97519685D01*
G37*
%TD.AperFunction*%
%TD*%
%TA.AperFunction,Conductor*%
%TO.N,GND*%
G36*
X108943039Y-76207685D02*
G01*
X108988794Y-76260489D01*
X109000000Y-76312000D01*
X109000000Y-83422185D01*
X108999500Y-83429815D01*
X108999500Y-83570186D01*
X109000000Y-83577816D01*
X109000000Y-85876000D01*
X108980315Y-85943039D01*
X108927511Y-85988794D01*
X108876000Y-86000000D01*
X98124000Y-86000000D01*
X98056961Y-85980315D01*
X98011206Y-85927511D01*
X98000000Y-85876000D01*
X98000000Y-76312000D01*
X98019685Y-76244961D01*
X98072489Y-76199206D01*
X98124000Y-76188000D01*
X108876000Y-76188000D01*
X108943039Y-76207685D01*
G37*
%TD.AperFunction*%
%TD*%
M02*
