%TF.GenerationSoftware,KiCad,Pcbnew,10.0.6-1.fc44*%
%TF.CreationDate,2026-09-23T16:56:23+05:30*%
%TF.ProjectId,tracker,74726163-6b65-4722-9e6b-696361645f70,rev?*%
%TF.SameCoordinates,Original*%
%TF.FileFunction,Legend,Top*%
%TF.FilePolarity,Positive*%
%FSLAX46Y46*%
G04 Gerber Fmt 4.6, Leading zero omitted, Abs format (unit mm)*
G04 Created by KiCad (PCBNEW 10.0.6-1.fc44) date 2026-09-23 16:56:23*
%MOMM*%
%LPD*%
G01*
G04 APERTURE LIST*
%ADD10C,0.150000*%
%ADD11C,0.106680*%
%ADD12C,0.152400*%
%ADD13C,0.120000*%
%ADD14C,0.100000*%
%ADD15C,0.127000*%
%ADD16C,0.504000*%
G04 APERTURE END LIST*
D10*
X157854762Y-113697507D02*
X157759524Y-113649888D01*
X157759524Y-113649888D02*
X157664286Y-113554650D01*
X157664286Y-113554650D02*
X157521429Y-113411792D01*
X157521429Y-113411792D02*
X157426191Y-113364173D01*
X157426191Y-113364173D02*
X157330953Y-113364173D01*
X157378572Y-113602269D02*
X157283334Y-113554650D01*
X157283334Y-113554650D02*
X157188096Y-113459411D01*
X157188096Y-113459411D02*
X157140477Y-113268935D01*
X157140477Y-113268935D02*
X157140477Y-112935602D01*
X157140477Y-112935602D02*
X157188096Y-112745126D01*
X157188096Y-112745126D02*
X157283334Y-112649888D01*
X157283334Y-112649888D02*
X157378572Y-112602269D01*
X157378572Y-112602269D02*
X157569048Y-112602269D01*
X157569048Y-112602269D02*
X157664286Y-112649888D01*
X157664286Y-112649888D02*
X157759524Y-112745126D01*
X157759524Y-112745126D02*
X157807143Y-112935602D01*
X157807143Y-112935602D02*
X157807143Y-113268935D01*
X157807143Y-113268935D02*
X157759524Y-113459411D01*
X157759524Y-113459411D02*
X157664286Y-113554650D01*
X157664286Y-113554650D02*
X157569048Y-113602269D01*
X157569048Y-113602269D02*
X157378572Y-113602269D01*
X158759524Y-113602269D02*
X158188096Y-113602269D01*
X158473810Y-113602269D02*
X158473810Y-112602269D01*
X158473810Y-112602269D02*
X158378572Y-112745126D01*
X158378572Y-112745126D02*
X158283334Y-112840364D01*
X158283334Y-112840364D02*
X158188096Y-112887983D01*
X157500000Y-111954819D02*
X157500000Y-112192914D01*
X157261905Y-112097676D02*
X157500000Y-112192914D01*
X157500000Y-112192914D02*
X157738095Y-112097676D01*
X157357143Y-112383390D02*
X157500000Y-112192914D01*
X157500000Y-112192914D02*
X157642857Y-112383390D01*
X157500000Y-110454819D02*
X157500000Y-110692914D01*
X157261905Y-110597676D02*
X157500000Y-110692914D01*
X157500000Y-110692914D02*
X157738095Y-110597676D01*
X157357143Y-110883390D02*
X157500000Y-110692914D01*
X157500000Y-110692914D02*
X157642857Y-110883390D01*
X156238095Y-105354819D02*
X156238095Y-106164342D01*
X156238095Y-106164342D02*
X156285714Y-106259580D01*
X156285714Y-106259580D02*
X156333333Y-106307200D01*
X156333333Y-106307200D02*
X156428571Y-106354819D01*
X156428571Y-106354819D02*
X156619047Y-106354819D01*
X156619047Y-106354819D02*
X156714285Y-106307200D01*
X156714285Y-106307200D02*
X156761904Y-106259580D01*
X156761904Y-106259580D02*
X156809523Y-106164342D01*
X156809523Y-106164342D02*
X156809523Y-105354819D01*
X157190476Y-105354819D02*
X157809523Y-105354819D01*
X157809523Y-105354819D02*
X157476190Y-105735771D01*
X157476190Y-105735771D02*
X157619047Y-105735771D01*
X157619047Y-105735771D02*
X157714285Y-105783390D01*
X157714285Y-105783390D02*
X157761904Y-105831009D01*
X157761904Y-105831009D02*
X157809523Y-105926247D01*
X157809523Y-105926247D02*
X157809523Y-106164342D01*
X157809523Y-106164342D02*
X157761904Y-106259580D01*
X157761904Y-106259580D02*
X157714285Y-106307200D01*
X157714285Y-106307200D02*
X157619047Y-106354819D01*
X157619047Y-106354819D02*
X157333333Y-106354819D01*
X157333333Y-106354819D02*
X157238095Y-106307200D01*
X157238095Y-106307200D02*
X157190476Y-106259580D01*
X139229819Y-95881904D02*
X140039342Y-95881904D01*
X140039342Y-95881904D02*
X140134580Y-95834285D01*
X140134580Y-95834285D02*
X140182200Y-95786666D01*
X140182200Y-95786666D02*
X140229819Y-95691428D01*
X140229819Y-95691428D02*
X140229819Y-95500952D01*
X140229819Y-95500952D02*
X140182200Y-95405714D01*
X140182200Y-95405714D02*
X140134580Y-95358095D01*
X140134580Y-95358095D02*
X140039342Y-95310476D01*
X140039342Y-95310476D02*
X139229819Y-95310476D01*
X139229819Y-94358095D02*
X139229819Y-94834285D01*
X139229819Y-94834285D02*
X139706009Y-94881904D01*
X139706009Y-94881904D02*
X139658390Y-94834285D01*
X139658390Y-94834285D02*
X139610771Y-94739047D01*
X139610771Y-94739047D02*
X139610771Y-94500952D01*
X139610771Y-94500952D02*
X139658390Y-94405714D01*
X139658390Y-94405714D02*
X139706009Y-94358095D01*
X139706009Y-94358095D02*
X139801247Y-94310476D01*
X139801247Y-94310476D02*
X140039342Y-94310476D01*
X140039342Y-94310476D02*
X140134580Y-94358095D01*
X140134580Y-94358095D02*
X140182200Y-94405714D01*
X140182200Y-94405714D02*
X140229819Y-94500952D01*
X140229819Y-94500952D02*
X140229819Y-94739047D01*
X140229819Y-94739047D02*
X140182200Y-94834285D01*
X140182200Y-94834285D02*
X140134580Y-94881904D01*
D11*
X118719850Y-77248691D02*
X118719850Y-77881998D01*
X118719850Y-77881998D02*
X118757104Y-77956504D01*
X118757104Y-77956504D02*
X118794357Y-77993758D01*
X118794357Y-77993758D02*
X118868864Y-78031011D01*
X118868864Y-78031011D02*
X119017877Y-78031011D01*
X119017877Y-78031011D02*
X119092384Y-77993758D01*
X119092384Y-77993758D02*
X119129637Y-77956504D01*
X119129637Y-77956504D02*
X119166890Y-77881998D01*
X119166890Y-77881998D02*
X119166890Y-77248691D01*
X119949210Y-78031011D02*
X119502170Y-78031011D01*
X119725690Y-78031011D02*
X119725690Y-77248691D01*
X119725690Y-77248691D02*
X119651183Y-77360451D01*
X119651183Y-77360451D02*
X119576677Y-77434958D01*
X119576677Y-77434958D02*
X119502170Y-77472211D01*
D10*
X150933333Y-102337319D02*
X150600000Y-101861128D01*
X150361905Y-102337319D02*
X150361905Y-101337319D01*
X150361905Y-101337319D02*
X150742857Y-101337319D01*
X150742857Y-101337319D02*
X150838095Y-101384938D01*
X150838095Y-101384938D02*
X150885714Y-101432557D01*
X150885714Y-101432557D02*
X150933333Y-101527795D01*
X150933333Y-101527795D02*
X150933333Y-101670652D01*
X150933333Y-101670652D02*
X150885714Y-101765890D01*
X150885714Y-101765890D02*
X150838095Y-101813509D01*
X150838095Y-101813509D02*
X150742857Y-101861128D01*
X150742857Y-101861128D02*
X150361905Y-101861128D01*
X151266667Y-101337319D02*
X151933333Y-101337319D01*
X151933333Y-101337319D02*
X151504762Y-102337319D01*
X102333333Y-107289580D02*
X102285714Y-107337200D01*
X102285714Y-107337200D02*
X102142857Y-107384819D01*
X102142857Y-107384819D02*
X102047619Y-107384819D01*
X102047619Y-107384819D02*
X101904762Y-107337200D01*
X101904762Y-107337200D02*
X101809524Y-107241961D01*
X101809524Y-107241961D02*
X101761905Y-107146723D01*
X101761905Y-107146723D02*
X101714286Y-106956247D01*
X101714286Y-106956247D02*
X101714286Y-106813390D01*
X101714286Y-106813390D02*
X101761905Y-106622914D01*
X101761905Y-106622914D02*
X101809524Y-106527676D01*
X101809524Y-106527676D02*
X101904762Y-106432438D01*
X101904762Y-106432438D02*
X102047619Y-106384819D01*
X102047619Y-106384819D02*
X102142857Y-106384819D01*
X102142857Y-106384819D02*
X102285714Y-106432438D01*
X102285714Y-106432438D02*
X102333333Y-106480057D01*
X102714286Y-106480057D02*
X102761905Y-106432438D01*
X102761905Y-106432438D02*
X102857143Y-106384819D01*
X102857143Y-106384819D02*
X103095238Y-106384819D01*
X103095238Y-106384819D02*
X103190476Y-106432438D01*
X103190476Y-106432438D02*
X103238095Y-106480057D01*
X103238095Y-106480057D02*
X103285714Y-106575295D01*
X103285714Y-106575295D02*
X103285714Y-106670533D01*
X103285714Y-106670533D02*
X103238095Y-106813390D01*
X103238095Y-106813390D02*
X102666667Y-107384819D01*
X102666667Y-107384819D02*
X103285714Y-107384819D01*
X121289580Y-122666666D02*
X121337200Y-122714285D01*
X121337200Y-122714285D02*
X121384819Y-122857142D01*
X121384819Y-122857142D02*
X121384819Y-122952380D01*
X121384819Y-122952380D02*
X121337200Y-123095237D01*
X121337200Y-123095237D02*
X121241961Y-123190475D01*
X121241961Y-123190475D02*
X121146723Y-123238094D01*
X121146723Y-123238094D02*
X120956247Y-123285713D01*
X120956247Y-123285713D02*
X120813390Y-123285713D01*
X120813390Y-123285713D02*
X120622914Y-123238094D01*
X120622914Y-123238094D02*
X120527676Y-123190475D01*
X120527676Y-123190475D02*
X120432438Y-123095237D01*
X120432438Y-123095237D02*
X120384819Y-122952380D01*
X120384819Y-122952380D02*
X120384819Y-122857142D01*
X120384819Y-122857142D02*
X120432438Y-122714285D01*
X120432438Y-122714285D02*
X120480057Y-122666666D01*
X120384819Y-122333332D02*
X120384819Y-121714285D01*
X120384819Y-121714285D02*
X120765771Y-122047618D01*
X120765771Y-122047618D02*
X120765771Y-121904761D01*
X120765771Y-121904761D02*
X120813390Y-121809523D01*
X120813390Y-121809523D02*
X120861009Y-121761904D01*
X120861009Y-121761904D02*
X120956247Y-121714285D01*
X120956247Y-121714285D02*
X121194342Y-121714285D01*
X121194342Y-121714285D02*
X121289580Y-121761904D01*
X121289580Y-121761904D02*
X121337200Y-121809523D01*
X121337200Y-121809523D02*
X121384819Y-121904761D01*
X121384819Y-121904761D02*
X121384819Y-122190475D01*
X121384819Y-122190475D02*
X121337200Y-122285713D01*
X121337200Y-122285713D02*
X121289580Y-122333332D01*
X144929580Y-108666666D02*
X144977200Y-108714285D01*
X144977200Y-108714285D02*
X145024819Y-108857142D01*
X145024819Y-108857142D02*
X145024819Y-108952380D01*
X145024819Y-108952380D02*
X144977200Y-109095237D01*
X144977200Y-109095237D02*
X144881961Y-109190475D01*
X144881961Y-109190475D02*
X144786723Y-109238094D01*
X144786723Y-109238094D02*
X144596247Y-109285713D01*
X144596247Y-109285713D02*
X144453390Y-109285713D01*
X144453390Y-109285713D02*
X144262914Y-109238094D01*
X144262914Y-109238094D02*
X144167676Y-109190475D01*
X144167676Y-109190475D02*
X144072438Y-109095237D01*
X144072438Y-109095237D02*
X144024819Y-108952380D01*
X144024819Y-108952380D02*
X144024819Y-108857142D01*
X144024819Y-108857142D02*
X144072438Y-108714285D01*
X144072438Y-108714285D02*
X144120057Y-108666666D01*
X144024819Y-107809523D02*
X144024819Y-107999999D01*
X144024819Y-107999999D02*
X144072438Y-108095237D01*
X144072438Y-108095237D02*
X144120057Y-108142856D01*
X144120057Y-108142856D02*
X144262914Y-108238094D01*
X144262914Y-108238094D02*
X144453390Y-108285713D01*
X144453390Y-108285713D02*
X144834342Y-108285713D01*
X144834342Y-108285713D02*
X144929580Y-108238094D01*
X144929580Y-108238094D02*
X144977200Y-108190475D01*
X144977200Y-108190475D02*
X145024819Y-108095237D01*
X145024819Y-108095237D02*
X145024819Y-107904761D01*
X145024819Y-107904761D02*
X144977200Y-107809523D01*
X144977200Y-107809523D02*
X144929580Y-107761904D01*
X144929580Y-107761904D02*
X144834342Y-107714285D01*
X144834342Y-107714285D02*
X144596247Y-107714285D01*
X144596247Y-107714285D02*
X144501009Y-107761904D01*
X144501009Y-107761904D02*
X144453390Y-107809523D01*
X144453390Y-107809523D02*
X144405771Y-107904761D01*
X144405771Y-107904761D02*
X144405771Y-108095237D01*
X144405771Y-108095237D02*
X144453390Y-108190475D01*
X144453390Y-108190475D02*
X144501009Y-108238094D01*
X144501009Y-108238094D02*
X144596247Y-108285713D01*
X102058333Y-102789580D02*
X102010714Y-102837200D01*
X102010714Y-102837200D02*
X101867857Y-102884819D01*
X101867857Y-102884819D02*
X101772619Y-102884819D01*
X101772619Y-102884819D02*
X101629762Y-102837200D01*
X101629762Y-102837200D02*
X101534524Y-102741961D01*
X101534524Y-102741961D02*
X101486905Y-102646723D01*
X101486905Y-102646723D02*
X101439286Y-102456247D01*
X101439286Y-102456247D02*
X101439286Y-102313390D01*
X101439286Y-102313390D02*
X101486905Y-102122914D01*
X101486905Y-102122914D02*
X101534524Y-102027676D01*
X101534524Y-102027676D02*
X101629762Y-101932438D01*
X101629762Y-101932438D02*
X101772619Y-101884819D01*
X101772619Y-101884819D02*
X101867857Y-101884819D01*
X101867857Y-101884819D02*
X102010714Y-101932438D01*
X102010714Y-101932438D02*
X102058333Y-101980057D01*
X103010714Y-102884819D02*
X102439286Y-102884819D01*
X102725000Y-102884819D02*
X102725000Y-101884819D01*
X102725000Y-101884819D02*
X102629762Y-102027676D01*
X102629762Y-102027676D02*
X102534524Y-102122914D01*
X102534524Y-102122914D02*
X102439286Y-102170533D01*
X157666666Y-75934819D02*
X157666666Y-76649104D01*
X157666666Y-76649104D02*
X157619047Y-76791961D01*
X157619047Y-76791961D02*
X157523809Y-76887200D01*
X157523809Y-76887200D02*
X157380952Y-76934819D01*
X157380952Y-76934819D02*
X157285714Y-76934819D01*
X158666666Y-76934819D02*
X158095238Y-76934819D01*
X158380952Y-76934819D02*
X158380952Y-75934819D01*
X158380952Y-75934819D02*
X158285714Y-76077676D01*
X158285714Y-76077676D02*
X158190476Y-76172914D01*
X158190476Y-76172914D02*
X158095238Y-76220533D01*
X149103333Y-92314819D02*
X148770000Y-91838628D01*
X148531905Y-92314819D02*
X148531905Y-91314819D01*
X148531905Y-91314819D02*
X148912857Y-91314819D01*
X148912857Y-91314819D02*
X149008095Y-91362438D01*
X149008095Y-91362438D02*
X149055714Y-91410057D01*
X149055714Y-91410057D02*
X149103333Y-91505295D01*
X149103333Y-91505295D02*
X149103333Y-91648152D01*
X149103333Y-91648152D02*
X149055714Y-91743390D01*
X149055714Y-91743390D02*
X149008095Y-91791009D01*
X149008095Y-91791009D02*
X148912857Y-91838628D01*
X148912857Y-91838628D02*
X148531905Y-91838628D01*
X149960476Y-91314819D02*
X149770000Y-91314819D01*
X149770000Y-91314819D02*
X149674762Y-91362438D01*
X149674762Y-91362438D02*
X149627143Y-91410057D01*
X149627143Y-91410057D02*
X149531905Y-91552914D01*
X149531905Y-91552914D02*
X149484286Y-91743390D01*
X149484286Y-91743390D02*
X149484286Y-92124342D01*
X149484286Y-92124342D02*
X149531905Y-92219580D01*
X149531905Y-92219580D02*
X149579524Y-92267200D01*
X149579524Y-92267200D02*
X149674762Y-92314819D01*
X149674762Y-92314819D02*
X149865238Y-92314819D01*
X149865238Y-92314819D02*
X149960476Y-92267200D01*
X149960476Y-92267200D02*
X150008095Y-92219580D01*
X150008095Y-92219580D02*
X150055714Y-92124342D01*
X150055714Y-92124342D02*
X150055714Y-91886247D01*
X150055714Y-91886247D02*
X150008095Y-91791009D01*
X150008095Y-91791009D02*
X149960476Y-91743390D01*
X149960476Y-91743390D02*
X149865238Y-91695771D01*
X149865238Y-91695771D02*
X149674762Y-91695771D01*
X149674762Y-91695771D02*
X149579524Y-91743390D01*
X149579524Y-91743390D02*
X149531905Y-91791009D01*
X149531905Y-91791009D02*
X149484286Y-91886247D01*
X141064819Y-89724344D02*
X140064819Y-89724344D01*
X140064819Y-89724344D02*
X140064819Y-89486249D01*
X140064819Y-89486249D02*
X140112438Y-89343392D01*
X140112438Y-89343392D02*
X140207676Y-89248154D01*
X140207676Y-89248154D02*
X140302914Y-89200535D01*
X140302914Y-89200535D02*
X140493390Y-89152916D01*
X140493390Y-89152916D02*
X140636247Y-89152916D01*
X140636247Y-89152916D02*
X140826723Y-89200535D01*
X140826723Y-89200535D02*
X140921961Y-89248154D01*
X140921961Y-89248154D02*
X141017200Y-89343392D01*
X141017200Y-89343392D02*
X141064819Y-89486249D01*
X141064819Y-89486249D02*
X141064819Y-89724344D01*
X141064819Y-88200535D02*
X141064819Y-88771963D01*
X141064819Y-88486249D02*
X140064819Y-88486249D01*
X140064819Y-88486249D02*
X140207676Y-88581487D01*
X140207676Y-88581487D02*
X140302914Y-88676725D01*
X140302914Y-88676725D02*
X140350533Y-88771963D01*
X131362319Y-113666666D02*
X130886128Y-113999999D01*
X131362319Y-114238094D02*
X130362319Y-114238094D01*
X130362319Y-114238094D02*
X130362319Y-113857142D01*
X130362319Y-113857142D02*
X130409938Y-113761904D01*
X130409938Y-113761904D02*
X130457557Y-113714285D01*
X130457557Y-113714285D02*
X130552795Y-113666666D01*
X130552795Y-113666666D02*
X130695652Y-113666666D01*
X130695652Y-113666666D02*
X130790890Y-113714285D01*
X130790890Y-113714285D02*
X130838509Y-113761904D01*
X130838509Y-113761904D02*
X130886128Y-113857142D01*
X130886128Y-113857142D02*
X130886128Y-114238094D01*
X131362319Y-112714285D02*
X131362319Y-113285713D01*
X131362319Y-112999999D02*
X130362319Y-112999999D01*
X130362319Y-112999999D02*
X130505176Y-113095237D01*
X130505176Y-113095237D02*
X130600414Y-113190475D01*
X130600414Y-113190475D02*
X130648033Y-113285713D01*
X125404819Y-114261904D02*
X126214342Y-114261904D01*
X126214342Y-114261904D02*
X126309580Y-114214285D01*
X126309580Y-114214285D02*
X126357200Y-114166666D01*
X126357200Y-114166666D02*
X126404819Y-114071428D01*
X126404819Y-114071428D02*
X126404819Y-113880952D01*
X126404819Y-113880952D02*
X126357200Y-113785714D01*
X126357200Y-113785714D02*
X126309580Y-113738095D01*
X126309580Y-113738095D02*
X126214342Y-113690476D01*
X126214342Y-113690476D02*
X125404819Y-113690476D01*
X125738152Y-112785714D02*
X126404819Y-112785714D01*
X125357200Y-113023809D02*
X126071485Y-113261904D01*
X126071485Y-113261904D02*
X126071485Y-112642857D01*
X153789580Y-109666666D02*
X153837200Y-109714285D01*
X153837200Y-109714285D02*
X153884819Y-109857142D01*
X153884819Y-109857142D02*
X153884819Y-109952380D01*
X153884819Y-109952380D02*
X153837200Y-110095237D01*
X153837200Y-110095237D02*
X153741961Y-110190475D01*
X153741961Y-110190475D02*
X153646723Y-110238094D01*
X153646723Y-110238094D02*
X153456247Y-110285713D01*
X153456247Y-110285713D02*
X153313390Y-110285713D01*
X153313390Y-110285713D02*
X153122914Y-110238094D01*
X153122914Y-110238094D02*
X153027676Y-110190475D01*
X153027676Y-110190475D02*
X152932438Y-110095237D01*
X152932438Y-110095237D02*
X152884819Y-109952380D01*
X152884819Y-109952380D02*
X152884819Y-109857142D01*
X152884819Y-109857142D02*
X152932438Y-109714285D01*
X152932438Y-109714285D02*
X152980057Y-109666666D01*
X152884819Y-109333332D02*
X152884819Y-108666666D01*
X152884819Y-108666666D02*
X153884819Y-109095237D01*
X144384819Y-102686666D02*
X143908628Y-103019999D01*
X144384819Y-103258094D02*
X143384819Y-103258094D01*
X143384819Y-103258094D02*
X143384819Y-102877142D01*
X143384819Y-102877142D02*
X143432438Y-102781904D01*
X143432438Y-102781904D02*
X143480057Y-102734285D01*
X143480057Y-102734285D02*
X143575295Y-102686666D01*
X143575295Y-102686666D02*
X143718152Y-102686666D01*
X143718152Y-102686666D02*
X143813390Y-102734285D01*
X143813390Y-102734285D02*
X143861009Y-102781904D01*
X143861009Y-102781904D02*
X143908628Y-102877142D01*
X143908628Y-102877142D02*
X143908628Y-103258094D01*
X143718152Y-101829523D02*
X144384819Y-101829523D01*
X143337200Y-102067618D02*
X144051485Y-102305713D01*
X144051485Y-102305713D02*
X144051485Y-101686666D01*
X143884819Y-85142916D02*
X143408628Y-85476249D01*
X143884819Y-85714344D02*
X142884819Y-85714344D01*
X142884819Y-85714344D02*
X142884819Y-85333392D01*
X142884819Y-85333392D02*
X142932438Y-85238154D01*
X142932438Y-85238154D02*
X142980057Y-85190535D01*
X142980057Y-85190535D02*
X143075295Y-85142916D01*
X143075295Y-85142916D02*
X143218152Y-85142916D01*
X143218152Y-85142916D02*
X143313390Y-85190535D01*
X143313390Y-85190535D02*
X143361009Y-85238154D01*
X143361009Y-85238154D02*
X143408628Y-85333392D01*
X143408628Y-85333392D02*
X143408628Y-85714344D01*
X143313390Y-84571487D02*
X143265771Y-84666725D01*
X143265771Y-84666725D02*
X143218152Y-84714344D01*
X143218152Y-84714344D02*
X143122914Y-84761963D01*
X143122914Y-84761963D02*
X143075295Y-84761963D01*
X143075295Y-84761963D02*
X142980057Y-84714344D01*
X142980057Y-84714344D02*
X142932438Y-84666725D01*
X142932438Y-84666725D02*
X142884819Y-84571487D01*
X142884819Y-84571487D02*
X142884819Y-84381011D01*
X142884819Y-84381011D02*
X142932438Y-84285773D01*
X142932438Y-84285773D02*
X142980057Y-84238154D01*
X142980057Y-84238154D02*
X143075295Y-84190535D01*
X143075295Y-84190535D02*
X143122914Y-84190535D01*
X143122914Y-84190535D02*
X143218152Y-84238154D01*
X143218152Y-84238154D02*
X143265771Y-84285773D01*
X143265771Y-84285773D02*
X143313390Y-84381011D01*
X143313390Y-84381011D02*
X143313390Y-84571487D01*
X143313390Y-84571487D02*
X143361009Y-84666725D01*
X143361009Y-84666725D02*
X143408628Y-84714344D01*
X143408628Y-84714344D02*
X143503866Y-84761963D01*
X143503866Y-84761963D02*
X143694342Y-84761963D01*
X143694342Y-84761963D02*
X143789580Y-84714344D01*
X143789580Y-84714344D02*
X143837200Y-84666725D01*
X143837200Y-84666725D02*
X143884819Y-84571487D01*
X143884819Y-84571487D02*
X143884819Y-84381011D01*
X143884819Y-84381011D02*
X143837200Y-84285773D01*
X143837200Y-84285773D02*
X143789580Y-84238154D01*
X143789580Y-84238154D02*
X143694342Y-84190535D01*
X143694342Y-84190535D02*
X143503866Y-84190535D01*
X143503866Y-84190535D02*
X143408628Y-84238154D01*
X143408628Y-84238154D02*
X143361009Y-84285773D01*
X143361009Y-84285773D02*
X143313390Y-84381011D01*
X148833333Y-86884819D02*
X148500000Y-86408628D01*
X148261905Y-86884819D02*
X148261905Y-85884819D01*
X148261905Y-85884819D02*
X148642857Y-85884819D01*
X148642857Y-85884819D02*
X148738095Y-85932438D01*
X148738095Y-85932438D02*
X148785714Y-85980057D01*
X148785714Y-85980057D02*
X148833333Y-86075295D01*
X148833333Y-86075295D02*
X148833333Y-86218152D01*
X148833333Y-86218152D02*
X148785714Y-86313390D01*
X148785714Y-86313390D02*
X148738095Y-86361009D01*
X148738095Y-86361009D02*
X148642857Y-86408628D01*
X148642857Y-86408628D02*
X148261905Y-86408628D01*
X149738095Y-85884819D02*
X149261905Y-85884819D01*
X149261905Y-85884819D02*
X149214286Y-86361009D01*
X149214286Y-86361009D02*
X149261905Y-86313390D01*
X149261905Y-86313390D02*
X149357143Y-86265771D01*
X149357143Y-86265771D02*
X149595238Y-86265771D01*
X149595238Y-86265771D02*
X149690476Y-86313390D01*
X149690476Y-86313390D02*
X149738095Y-86361009D01*
X149738095Y-86361009D02*
X149785714Y-86456247D01*
X149785714Y-86456247D02*
X149785714Y-86694342D01*
X149785714Y-86694342D02*
X149738095Y-86789580D01*
X149738095Y-86789580D02*
X149690476Y-86837200D01*
X149690476Y-86837200D02*
X149595238Y-86884819D01*
X149595238Y-86884819D02*
X149357143Y-86884819D01*
X149357143Y-86884819D02*
X149261905Y-86837200D01*
X149261905Y-86837200D02*
X149214286Y-86789580D01*
X112384819Y-120166666D02*
X111908628Y-120499999D01*
X112384819Y-120738094D02*
X111384819Y-120738094D01*
X111384819Y-120738094D02*
X111384819Y-120357142D01*
X111384819Y-120357142D02*
X111432438Y-120261904D01*
X111432438Y-120261904D02*
X111480057Y-120214285D01*
X111480057Y-120214285D02*
X111575295Y-120166666D01*
X111575295Y-120166666D02*
X111718152Y-120166666D01*
X111718152Y-120166666D02*
X111813390Y-120214285D01*
X111813390Y-120214285D02*
X111861009Y-120261904D01*
X111861009Y-120261904D02*
X111908628Y-120357142D01*
X111908628Y-120357142D02*
X111908628Y-120738094D01*
X111480057Y-119785713D02*
X111432438Y-119738094D01*
X111432438Y-119738094D02*
X111384819Y-119642856D01*
X111384819Y-119642856D02*
X111384819Y-119404761D01*
X111384819Y-119404761D02*
X111432438Y-119309523D01*
X111432438Y-119309523D02*
X111480057Y-119261904D01*
X111480057Y-119261904D02*
X111575295Y-119214285D01*
X111575295Y-119214285D02*
X111670533Y-119214285D01*
X111670533Y-119214285D02*
X111813390Y-119261904D01*
X111813390Y-119261904D02*
X112384819Y-119833332D01*
X112384819Y-119833332D02*
X112384819Y-119214285D01*
X143654819Y-89724344D02*
X142654819Y-89724344D01*
X142654819Y-89724344D02*
X142654819Y-89486249D01*
X142654819Y-89486249D02*
X142702438Y-89343392D01*
X142702438Y-89343392D02*
X142797676Y-89248154D01*
X142797676Y-89248154D02*
X142892914Y-89200535D01*
X142892914Y-89200535D02*
X143083390Y-89152916D01*
X143083390Y-89152916D02*
X143226247Y-89152916D01*
X143226247Y-89152916D02*
X143416723Y-89200535D01*
X143416723Y-89200535D02*
X143511961Y-89248154D01*
X143511961Y-89248154D02*
X143607200Y-89343392D01*
X143607200Y-89343392D02*
X143654819Y-89486249D01*
X143654819Y-89486249D02*
X143654819Y-89724344D01*
X142750057Y-88771963D02*
X142702438Y-88724344D01*
X142702438Y-88724344D02*
X142654819Y-88629106D01*
X142654819Y-88629106D02*
X142654819Y-88391011D01*
X142654819Y-88391011D02*
X142702438Y-88295773D01*
X142702438Y-88295773D02*
X142750057Y-88248154D01*
X142750057Y-88248154D02*
X142845295Y-88200535D01*
X142845295Y-88200535D02*
X142940533Y-88200535D01*
X142940533Y-88200535D02*
X143083390Y-88248154D01*
X143083390Y-88248154D02*
X143654819Y-88819582D01*
X143654819Y-88819582D02*
X143654819Y-88200535D01*
X103024819Y-123491666D02*
X102548628Y-123824999D01*
X103024819Y-124063094D02*
X102024819Y-124063094D01*
X102024819Y-124063094D02*
X102024819Y-123682142D01*
X102024819Y-123682142D02*
X102072438Y-123586904D01*
X102072438Y-123586904D02*
X102120057Y-123539285D01*
X102120057Y-123539285D02*
X102215295Y-123491666D01*
X102215295Y-123491666D02*
X102358152Y-123491666D01*
X102358152Y-123491666D02*
X102453390Y-123539285D01*
X102453390Y-123539285D02*
X102501009Y-123586904D01*
X102501009Y-123586904D02*
X102548628Y-123682142D01*
X102548628Y-123682142D02*
X102548628Y-124063094D01*
X102024819Y-123158332D02*
X102024819Y-122539285D01*
X102024819Y-122539285D02*
X102405771Y-122872618D01*
X102405771Y-122872618D02*
X102405771Y-122729761D01*
X102405771Y-122729761D02*
X102453390Y-122634523D01*
X102453390Y-122634523D02*
X102501009Y-122586904D01*
X102501009Y-122586904D02*
X102596247Y-122539285D01*
X102596247Y-122539285D02*
X102834342Y-122539285D01*
X102834342Y-122539285D02*
X102929580Y-122586904D01*
X102929580Y-122586904D02*
X102977200Y-122634523D01*
X102977200Y-122634523D02*
X103024819Y-122729761D01*
X103024819Y-122729761D02*
X103024819Y-123015475D01*
X103024819Y-123015475D02*
X102977200Y-123110713D01*
X102977200Y-123110713D02*
X102929580Y-123158332D01*
X141714285Y-112881009D02*
X141857142Y-112928628D01*
X141857142Y-112928628D02*
X141904761Y-112976247D01*
X141904761Y-112976247D02*
X141952380Y-113071485D01*
X141952380Y-113071485D02*
X141952380Y-113214342D01*
X141952380Y-113214342D02*
X141904761Y-113309580D01*
X141904761Y-113309580D02*
X141857142Y-113357200D01*
X141857142Y-113357200D02*
X141761904Y-113404819D01*
X141761904Y-113404819D02*
X141380952Y-113404819D01*
X141380952Y-113404819D02*
X141380952Y-112404819D01*
X141380952Y-112404819D02*
X141714285Y-112404819D01*
X141714285Y-112404819D02*
X141809523Y-112452438D01*
X141809523Y-112452438D02*
X141857142Y-112500057D01*
X141857142Y-112500057D02*
X141904761Y-112595295D01*
X141904761Y-112595295D02*
X141904761Y-112690533D01*
X141904761Y-112690533D02*
X141857142Y-112785771D01*
X141857142Y-112785771D02*
X141809523Y-112833390D01*
X141809523Y-112833390D02*
X141714285Y-112881009D01*
X141714285Y-112881009D02*
X141380952Y-112881009D01*
X142238095Y-112404819D02*
X142809523Y-112404819D01*
X142523809Y-113404819D02*
X142523809Y-112404819D01*
X143666666Y-113404819D02*
X143095238Y-113404819D01*
X143380952Y-113404819D02*
X143380952Y-112404819D01*
X143380952Y-112404819D02*
X143285714Y-112547676D01*
X143285714Y-112547676D02*
X143190476Y-112642914D01*
X143190476Y-112642914D02*
X143095238Y-112690533D01*
X101238095Y-95629819D02*
X101238095Y-96439342D01*
X101238095Y-96439342D02*
X101285714Y-96534580D01*
X101285714Y-96534580D02*
X101333333Y-96582200D01*
X101333333Y-96582200D02*
X101428571Y-96629819D01*
X101428571Y-96629819D02*
X101619047Y-96629819D01*
X101619047Y-96629819D02*
X101714285Y-96582200D01*
X101714285Y-96582200D02*
X101761904Y-96534580D01*
X101761904Y-96534580D02*
X101809523Y-96439342D01*
X101809523Y-96439342D02*
X101809523Y-95629819D01*
X102238095Y-95725057D02*
X102285714Y-95677438D01*
X102285714Y-95677438D02*
X102380952Y-95629819D01*
X102380952Y-95629819D02*
X102619047Y-95629819D01*
X102619047Y-95629819D02*
X102714285Y-95677438D01*
X102714285Y-95677438D02*
X102761904Y-95725057D01*
X102761904Y-95725057D02*
X102809523Y-95820295D01*
X102809523Y-95820295D02*
X102809523Y-95915533D01*
X102809523Y-95915533D02*
X102761904Y-96058390D01*
X102761904Y-96058390D02*
X102190476Y-96629819D01*
X102190476Y-96629819D02*
X102809523Y-96629819D01*
X159789580Y-89666666D02*
X159837200Y-89714285D01*
X159837200Y-89714285D02*
X159884819Y-89857142D01*
X159884819Y-89857142D02*
X159884819Y-89952380D01*
X159884819Y-89952380D02*
X159837200Y-90095237D01*
X159837200Y-90095237D02*
X159741961Y-90190475D01*
X159741961Y-90190475D02*
X159646723Y-90238094D01*
X159646723Y-90238094D02*
X159456247Y-90285713D01*
X159456247Y-90285713D02*
X159313390Y-90285713D01*
X159313390Y-90285713D02*
X159122914Y-90238094D01*
X159122914Y-90238094D02*
X159027676Y-90190475D01*
X159027676Y-90190475D02*
X158932438Y-90095237D01*
X158932438Y-90095237D02*
X158884819Y-89952380D01*
X158884819Y-89952380D02*
X158884819Y-89857142D01*
X158884819Y-89857142D02*
X158932438Y-89714285D01*
X158932438Y-89714285D02*
X158980057Y-89666666D01*
X158884819Y-88761904D02*
X158884819Y-89238094D01*
X158884819Y-89238094D02*
X159361009Y-89285713D01*
X159361009Y-89285713D02*
X159313390Y-89238094D01*
X159313390Y-89238094D02*
X159265771Y-89142856D01*
X159265771Y-89142856D02*
X159265771Y-88904761D01*
X159265771Y-88904761D02*
X159313390Y-88809523D01*
X159313390Y-88809523D02*
X159361009Y-88761904D01*
X159361009Y-88761904D02*
X159456247Y-88714285D01*
X159456247Y-88714285D02*
X159694342Y-88714285D01*
X159694342Y-88714285D02*
X159789580Y-88761904D01*
X159789580Y-88761904D02*
X159837200Y-88809523D01*
X159837200Y-88809523D02*
X159884819Y-88904761D01*
X159884819Y-88904761D02*
X159884819Y-89142856D01*
X159884819Y-89142856D02*
X159837200Y-89238094D01*
X159837200Y-89238094D02*
X159789580Y-89285713D01*
X146394819Y-85619107D02*
X145918628Y-85952440D01*
X146394819Y-86190535D02*
X145394819Y-86190535D01*
X145394819Y-86190535D02*
X145394819Y-85809583D01*
X145394819Y-85809583D02*
X145442438Y-85714345D01*
X145442438Y-85714345D02*
X145490057Y-85666726D01*
X145490057Y-85666726D02*
X145585295Y-85619107D01*
X145585295Y-85619107D02*
X145728152Y-85619107D01*
X145728152Y-85619107D02*
X145823390Y-85666726D01*
X145823390Y-85666726D02*
X145871009Y-85714345D01*
X145871009Y-85714345D02*
X145918628Y-85809583D01*
X145918628Y-85809583D02*
X145918628Y-86190535D01*
X146394819Y-84666726D02*
X146394819Y-85238154D01*
X146394819Y-84952440D02*
X145394819Y-84952440D01*
X145394819Y-84952440D02*
X145537676Y-85047678D01*
X145537676Y-85047678D02*
X145632914Y-85142916D01*
X145632914Y-85142916D02*
X145680533Y-85238154D01*
X145394819Y-84047678D02*
X145394819Y-83952440D01*
X145394819Y-83952440D02*
X145442438Y-83857202D01*
X145442438Y-83857202D02*
X145490057Y-83809583D01*
X145490057Y-83809583D02*
X145585295Y-83761964D01*
X145585295Y-83761964D02*
X145775771Y-83714345D01*
X145775771Y-83714345D02*
X146013866Y-83714345D01*
X146013866Y-83714345D02*
X146204342Y-83761964D01*
X146204342Y-83761964D02*
X146299580Y-83809583D01*
X146299580Y-83809583D02*
X146347200Y-83857202D01*
X146347200Y-83857202D02*
X146394819Y-83952440D01*
X146394819Y-83952440D02*
X146394819Y-84047678D01*
X146394819Y-84047678D02*
X146347200Y-84142916D01*
X146347200Y-84142916D02*
X146299580Y-84190535D01*
X146299580Y-84190535D02*
X146204342Y-84238154D01*
X146204342Y-84238154D02*
X146013866Y-84285773D01*
X146013866Y-84285773D02*
X145775771Y-84285773D01*
X145775771Y-84285773D02*
X145585295Y-84238154D01*
X145585295Y-84238154D02*
X145490057Y-84190535D01*
X145490057Y-84190535D02*
X145442438Y-84142916D01*
X145442438Y-84142916D02*
X145394819Y-84047678D01*
X158884819Y-108491666D02*
X158408628Y-108824999D01*
X158884819Y-109063094D02*
X157884819Y-109063094D01*
X157884819Y-109063094D02*
X157884819Y-108682142D01*
X157884819Y-108682142D02*
X157932438Y-108586904D01*
X157932438Y-108586904D02*
X157980057Y-108539285D01*
X157980057Y-108539285D02*
X158075295Y-108491666D01*
X158075295Y-108491666D02*
X158218152Y-108491666D01*
X158218152Y-108491666D02*
X158313390Y-108539285D01*
X158313390Y-108539285D02*
X158361009Y-108586904D01*
X158361009Y-108586904D02*
X158408628Y-108682142D01*
X158408628Y-108682142D02*
X158408628Y-109063094D01*
X158884819Y-108015475D02*
X158884819Y-107824999D01*
X158884819Y-107824999D02*
X158837200Y-107729761D01*
X158837200Y-107729761D02*
X158789580Y-107682142D01*
X158789580Y-107682142D02*
X158646723Y-107586904D01*
X158646723Y-107586904D02*
X158456247Y-107539285D01*
X158456247Y-107539285D02*
X158075295Y-107539285D01*
X158075295Y-107539285D02*
X157980057Y-107586904D01*
X157980057Y-107586904D02*
X157932438Y-107634523D01*
X157932438Y-107634523D02*
X157884819Y-107729761D01*
X157884819Y-107729761D02*
X157884819Y-107920237D01*
X157884819Y-107920237D02*
X157932438Y-108015475D01*
X157932438Y-108015475D02*
X157980057Y-108063094D01*
X157980057Y-108063094D02*
X158075295Y-108110713D01*
X158075295Y-108110713D02*
X158313390Y-108110713D01*
X158313390Y-108110713D02*
X158408628Y-108063094D01*
X158408628Y-108063094D02*
X158456247Y-108015475D01*
X158456247Y-108015475D02*
X158503866Y-107920237D01*
X158503866Y-107920237D02*
X158503866Y-107729761D01*
X158503866Y-107729761D02*
X158456247Y-107634523D01*
X158456247Y-107634523D02*
X158408628Y-107586904D01*
X158408628Y-107586904D02*
X158313390Y-107539285D01*
%TO.C,Q1*%
D12*
X158927901Y-111471050D02*
X156972101Y-111471050D01*
X156972101Y-114823850D02*
X158927901Y-114823850D01*
%TO.C,U3*%
D13*
X156090000Y-101940000D02*
X157910000Y-101940000D01*
X156090000Y-101990000D02*
X156090000Y-101940000D01*
X156090000Y-105060000D02*
X156090000Y-105010000D01*
X157910000Y-101940000D02*
X157910000Y-101990000D01*
X157910000Y-105010000D02*
X157910000Y-105060000D01*
X157910000Y-105060000D02*
X156090000Y-105060000D01*
X158450000Y-105010000D02*
X158690000Y-105340000D01*
X158210000Y-105340000D01*
X158450000Y-105010000D01*
G36*
X158690000Y-105340000D02*
G01*
X158210000Y-105340000D01*
X158450000Y-105010000D01*
X158690000Y-105340000D01*
G37*
%TO.C,U5*%
X140615000Y-93060000D02*
X140710000Y-93060000D01*
X140615000Y-97180000D02*
X140615000Y-93060000D01*
X140710000Y-97180000D02*
X140615000Y-97180000D01*
X145640000Y-93060000D02*
X145735000Y-93060000D01*
X145735000Y-93060000D02*
X145735000Y-97180000D01*
X145735000Y-97180000D02*
X145640000Y-97180000D01*
X140705000Y-97720000D02*
X140375000Y-97960000D01*
X140375000Y-97480000D01*
X140705000Y-97720000D01*
G36*
X140705000Y-97720000D02*
G01*
X140375000Y-97960000D01*
X140375000Y-97480000D01*
X140705000Y-97720000D01*
G37*
%TO.C,U1*%
D14*
X111351400Y-97481300D02*
X111351400Y-80336300D01*
X113256400Y-99386300D02*
X127226400Y-99386300D01*
D15*
X115746400Y-78431300D02*
X115750128Y-77421028D01*
X116250128Y-76921300D02*
X124245400Y-76921300D01*
X124745400Y-77421300D02*
X124745400Y-78431300D01*
D14*
X127226400Y-78431300D02*
X113256400Y-78431300D01*
X129131400Y-97481300D02*
X129131400Y-80336300D01*
X111351400Y-80332300D02*
G75*
G02*
X113256400Y-78427300I1905001J-1D01*
G01*
X113256400Y-99386300D02*
G75*
G02*
X111351400Y-97481300I0J1905000D01*
G01*
D15*
X115750128Y-77421028D02*
G75*
G02*
X116250128Y-76921298I500022J-292D01*
G01*
X124245400Y-76921300D02*
G75*
G02*
X124745400Y-77421300I0J-500000D01*
G01*
D14*
X127226400Y-78431300D02*
G75*
G02*
X129131400Y-80336300I0J-1905000D01*
G01*
X129131400Y-97481300D02*
G75*
G02*
X127226400Y-99386300I-1905000J0D01*
G01*
D16*
X111393400Y-78847300D02*
G75*
G02*
X110889400Y-78847300I-252000J0D01*
G01*
X110889400Y-78847300D02*
G75*
G02*
X111393400Y-78847300I252000J0D01*
G01*
X112667400Y-79564300D02*
G75*
G02*
X112163400Y-79564300I-252000J0D01*
G01*
X112163400Y-79564300D02*
G75*
G02*
X112667400Y-79564300I252000J0D01*
G01*
%TO.C,R7*%
D13*
X150587742Y-102790000D02*
X151062258Y-102790000D01*
X150587742Y-103835000D02*
X151062258Y-103835000D01*
%TO.C,C2*%
X102365580Y-104990000D02*
X102084420Y-104990000D01*
X102365580Y-106010000D02*
X102084420Y-106010000D01*
%TO.C,C3*%
X118990000Y-122359420D02*
X118990000Y-122640580D01*
X120010000Y-122359420D02*
X120010000Y-122640580D01*
%TO.C,C6*%
X145490000Y-108640580D02*
X145490000Y-108359420D01*
X146510000Y-108640580D02*
X146510000Y-108359420D01*
%TO.C,C1*%
X102365580Y-100490000D02*
X102084420Y-100490000D01*
X102365580Y-101510000D02*
X102084420Y-101510000D01*
%TO.C,J1*%
X153330000Y-81330000D02*
X153330000Y-79630000D01*
X162670000Y-81330000D02*
X162670000Y-79630000D01*
%TO.C,R6*%
X149507258Y-89907500D02*
X149032742Y-89907500D01*
X149507258Y-90952500D02*
X149032742Y-90952500D01*
%TO.C,D1*%
X141305000Y-88186250D02*
X141305000Y-90471250D01*
X141305000Y-90471250D02*
X142775000Y-90471250D01*
X142775000Y-90471250D02*
X142775000Y-88186250D01*
%TO.C,R1*%
X131827500Y-115677064D02*
X131827500Y-111322936D01*
X135247500Y-115677064D02*
X135247500Y-111322936D01*
%TO.C,U4*%
X121890000Y-111890000D02*
X122065000Y-111890000D01*
X121890000Y-115110000D02*
X121890000Y-111890000D01*
X122065000Y-115110000D02*
X121890000Y-115110000D01*
X124935000Y-111890000D02*
X125110000Y-111890000D01*
X125110000Y-111890000D02*
X125110000Y-115110000D01*
X125110000Y-115110000D02*
X124935000Y-115110000D01*
X124940000Y-111340000D02*
X125270000Y-111100000D01*
X125270000Y-111580000D01*
X124940000Y-111340000D01*
G36*
X125270000Y-111580000D02*
G01*
X124940000Y-111340000D01*
X125270000Y-111100000D01*
X125270000Y-111580000D01*
G37*
%TO.C,C7*%
X151490000Y-109359420D02*
X151490000Y-109640580D01*
X152510000Y-109359420D02*
X152510000Y-109640580D01*
%TO.C,R4*%
X141977500Y-102282742D02*
X141977500Y-102757258D01*
X143022500Y-102282742D02*
X143022500Y-102757258D01*
%TO.C,R8*%
X141477500Y-84738992D02*
X141477500Y-85213508D01*
X142522500Y-84738992D02*
X142522500Y-85213508D01*
%TO.C,R5*%
X149237258Y-84477500D02*
X148762742Y-84477500D01*
X149237258Y-85522500D02*
X148762742Y-85522500D01*
%TO.C,R2*%
X109977500Y-119762742D02*
X109977500Y-120237258D01*
X111022500Y-119762742D02*
X111022500Y-120237258D01*
%TO.C,D2*%
X143895000Y-88186250D02*
X143895000Y-90471250D01*
X143895000Y-90471250D02*
X145365000Y-90471250D01*
X145365000Y-90471250D02*
X145365000Y-88186250D01*
%TO.C,R3*%
X103477500Y-123562258D02*
X103477500Y-123087742D01*
X104522500Y-123562258D02*
X104522500Y-123087742D01*
%TO.C,BT1*%
X139440000Y-114040000D02*
X139440000Y-121860000D01*
X139440000Y-115640000D02*
X140360000Y-115640000D01*
X139440000Y-121860000D02*
X145560000Y-121860000D01*
X140360000Y-114040000D02*
X139440000Y-114040000D01*
X140360000Y-115640000D02*
X140360000Y-114040000D01*
X140640000Y-115640000D02*
X140360000Y-115640000D01*
X140640000Y-115640000D02*
X140640000Y-114425000D01*
X140700000Y-119600000D02*
X140700000Y-121860000D01*
X141200000Y-119600000D02*
X141200000Y-121860000D01*
X142000000Y-117500000D02*
X143000000Y-117500000D01*
X142000000Y-121860000D02*
X142000000Y-117500000D01*
X143000000Y-117500000D02*
X143000000Y-121860000D01*
X144640000Y-114040000D02*
X144640000Y-115640000D01*
X144640000Y-115640000D02*
X144360000Y-115640000D01*
X145560000Y-114040000D02*
X144640000Y-114040000D01*
X145560000Y-115640000D02*
X144640000Y-115640000D01*
X145560000Y-121860000D02*
X145560000Y-114040000D01*
X140200000Y-118000000D02*
X141200000Y-118000000D01*
X141200000Y-119600000D01*
X140200000Y-119600000D01*
X140200000Y-118000000D01*
X143800000Y-118000000D02*
X144800000Y-118000000D01*
X144800000Y-119600000D01*
X143800000Y-119600000D01*
X143800000Y-118000000D01*
%TO.C,U2*%
X100390000Y-92115000D02*
X101065000Y-92115000D01*
X100390000Y-92290000D02*
X100390000Y-92115000D01*
X100390000Y-95335000D02*
X100390000Y-95160000D01*
X101065000Y-95335000D02*
X100390000Y-95335000D01*
X102935000Y-92115000D02*
X103610000Y-92115000D01*
X103610000Y-92115000D02*
X103610000Y-92290000D01*
X103610000Y-95160000D02*
X103610000Y-95335000D01*
X103610000Y-95335000D02*
X102935000Y-95335000D01*
X103760000Y-94725000D02*
X104090000Y-94485000D01*
X104090000Y-94965000D01*
X103760000Y-94725000D01*
G36*
X104090000Y-94965000D02*
G01*
X103760000Y-94725000D01*
X104090000Y-94485000D01*
X104090000Y-94965000D01*
G37*
%TO.C,C5*%
X157490000Y-89359420D02*
X157490000Y-89640580D01*
X158510000Y-89359420D02*
X158510000Y-89640580D01*
%TO.C,R10*%
X143987500Y-84738992D02*
X143987500Y-85213508D01*
X145032500Y-84738992D02*
X145032500Y-85213508D01*
%TO.C,R9*%
X156477500Y-108087742D02*
X156477500Y-108562258D01*
X157522500Y-108087742D02*
X157522500Y-108562258D01*
%TD*%
M02*
