M48
; DRILL file KiCad 10.0.6-1.fc44 date 2026-09-23T16:56:06
; FORMAT={-:-/ absolute / metric / decimal}
; #@! TF.CreationDate,2026-09-23T16:56:06+05:30
; #@! TF.GenerationSoftware,Kicad,Pcbnew,10.0.6-1.fc44
; #@! TF.FileFunction,Plated,1,2,PTH
FMAT,2
METRIC
; #@! TA.AperFunction,Plated,PTH,ComponentDrill
T1C0.200
; #@! TA.AperFunction,Plated,PTH,ViaDrill
T2C0.300
; #@! TA.AperFunction,Plated,PTH,ComponentDrill
T3C0.600
; #@! TA.AperFunction,Plated,PTH,ComponentDrill
T4C0.750
%
G90
G05
T1
X141.975Y-94.42
X141.975Y-95.82
X143.175Y-94.42
X143.175Y-95.82
X144.375Y-94.42
X144.375Y-95.82
T2
X99.0Y-92.0
X99.0Y-95.0
X99.0Y-96.25
X100.0Y-98.0
X102.0Y-82.0
X103.0Y-99.0
X104.5Y-92.5
X105.5Y-121.0
X106.0Y-124.0
X107.5Y-92.5
X109.0Y-121.5
X109.5Y-83.5
X110.5Y-114.0
X110.5Y-118.5
X119.0Y-107.0
X119.5Y-119.5
X120.0Y-114.0
X122.0Y-108.0
X123.0Y-89.0
X125.5Y-120.0
X126.0Y-116.5
X133.0Y-107.5
X133.865Y-88.234
X135.5Y-83.5
X139.5Y-96.0
X142.5Y-105.5
X147.5Y-112.0
X150.0Y-119.0
X150.47Y-85.97
X152.43Y-89.345
X156.25Y-80.535
X156.5Y-98.0
X156.5Y-125.0
X158.7Y-81.5
X159.25Y-80.535
T4
X141.5Y-115.5
X143.5Y-115.5
T3
G00X153.68Y-78.28
M15
G01X153.68Y-78.88
M16
G05
G00X153.68Y-82.08
M15
G01X153.68Y-82.68
M16
G05
G00X162.32Y-78.28
M15
G01X162.32Y-78.88
M16
G05
G00X162.32Y-82.08
M15
G01X162.32Y-82.68
M16
G05
M30
