mtllib OBJ_INA226 CJMCU-226 BLUE.mtl
usemtl mtl1
v 3958.63 -3041.5 0
v 3958.63 -2956.5 0
v 3958.63 -2956.5 10
vn 850 0 0
f 1//1 2//1 3//1
v 3958.63 -3041.5 10
f 3//1 4//1 1//1
v 4041.13 -2956.5 0
v 4041.13 -2956.5 10
vn 0 -825 0
f 2//2 5//2 6//2
f 6//2 3//2 2//2
v 4041.13 -3041.5 0
v 4041.13 -3041.5 10
vn -850 0 0
f 5//3 7//3 8//3
f 8//3 6//3 5//3
vn 0 825 0
f 7//4 1//4 4//4
f 4//4 8//4 7//4
v 4027.13 -3034.9055 0
v 4030.2858094274193 -3034.0830038541353 0
v 4029.954105751494 -3034.274513060721 10
vn 8.224961458645339 -31.558094274191717 -0.33154156456260986
f 9//5 10//5 11//5
v 4027.13 -3034.9055 10
vn 6.309869392789551 -28.241057514937893 0
f 11//6 12//6 9//6
v 4033.2018715578583 -3029.787676700085 0
v 4032.683782160274 -3031.2252112348156 10
vn 42.95327154050483 -29.160621304390588 -1.9665765602567271
f 10//7 13//7 14//7
vn 30.493018259053315 -27.29676408780051 0.48870646137793916
f 14//8 11//8 10//8
v 4032.8147821728467 -3027.1347083416713 10
vn 40.90502893144276 -1.3100001257271288 1.930929137602888
f 15//9 14//9 13//9
v 4031.5877810480006 -3025.0094800524967 0
vn 47.781966475881745 16.140905098577605 -2.4325418484884618
f 13//10 16//10 15//10
v 4030.2858094274256 -3023.9169961458692 10
vn 32.17712195802051 25.28972745421015 1.426507937440292
f 17//11 15//11 16//11
v 4029.14979995641 -3023.450645227949 0
vn 15.5883482454783 24.379810915907 -0.633896404499616
f 16//12 18//12 17//12
v 4027.13 -3023.0945 0
v 4027.13 -3023.0945 10
vn 3.56145227948673 20.1979995640977 0
f 18//13 19//13 20//13
vn 8.224961458690814 31.55809427425538 0.5373512116805349
f 20//14 17//14 18//14
v 4022.9849853570295 -3024.493680835923 0
v 4024.305894248486 -3023.7254869392896 10
vn -13.991808359228344 41.450146429706365 -1.3359845432603505
f 19//15 21//15 22//15
vn -6.309869392894143 28.24105751514253 0
f 22//16 20//16 19//16
v 4022.015686977951 -3026.04725 10
vn -23.217630607105093 22.902072705346654 1.3075142234972854
f 23//17 22//17 21//17
v 4021.1500848210762 -3029.191509206585 0
v 4021.058128442143 -3029.7876767000853 10
vn -46.97828370662137 18.349005359532384 0.6619127675244432
f 21//18 24//18 25//18
vn -37.40426700085209 9.575585358084027 -2.1379561234229776
f 25//19 23//19 21//19
v 4022.015686977951 -3031.95275 0
vn -27.612407934147996 -8.656021568749566 -0.7699575729582169
f 24//20 26//20 25//20
v 4024.3058942484963 -3034.274513060716 0
v 4023.9741905725805 -3034.0830038541353 10
vn -23.217630607159663 -22.902072705451246 -0.33154156455791606
f 26//21 27//21 28//21
vn -42.95327154050028 -29.160621304376946 2.2004610790526327
f 28//22 25//22 26//22
vn -6.309869392839573 -28.241057515037937 0
f 27//23 9//23 12//23
vn -8.224961458645339 -31.558094274196264 0.3315415645547655
f 12//24 28//24 27//24
v 4024.305894248497 -2974.2745130607163 0
v 4027.13 -2974.9055 0
v 4027.13 -2974.9055 10
vn -6.309869392835026 -28.241057515028842 0
f 29//25 30//25 31//25
v 4023.974190572579 -2974.083003854134 10
vn -8.224961458658981 -31.558094274209907 0.3315415645584445
f 31//26 32//26 29//26
v 4030.28580942742 -2974.083003854135 0
v 4030.8480838111714 -2973.864556667578 10
vn 8.224961458649886 -31.558094274200812 0.2269091771749469
f 30//27 33//27 34//27
vn 10.40943332421648 -37.180838111712546 0
f 34//28 31//28 30//28
v 4033.201871557857 -2969.787676700086 0
vn 42.95327154048664 -29.16062130436785 -1.7781468603340613
f 33//29 35//29 34//29
v 4033.1099151789253 -2969.1915092065838 10
vn 46.730474609944395 -22.618313677539845 1.7781468603277588
f 36//30 34//30 35//30
v 4031.5877810479974 -2965.0094800524935 0
v 4032.244313022049 -2966.04725 10
vn 47.78196647592722 16.140905098595795 -1.4619842537630545
f 35//31 37//31 38//31
vn 31.442592065836834 8.656021568763208 -0.2269091771753911
f 38//32 36//32 35//32
v 4030.285809427424 -2963.916996145868 10
vn 21.302538541322065 19.585035946251992 0.6338964045011741
f 39//33 38//33 37//33
v 4029.14979995641 -2963.450645227949 0
vn 15.588348245446468 24.37981091587517 -0.6338964044979749
f 37//34 40//34 39//34
v 4027.13 -2963.0945 0
v 4027.13 -2963.0945 10
f 40//13 41//13 42//13
vn 8.224961458677171 31.55809427423719 0.5373512116784271
f 42//35 39//35 40//35
v 4022.984985357028 -2964.493680835924 0
v 4024.305894248501 -2963.725486939281 10
vn -13.991808359237439 41.45014642972001 -1.3359845432768749
f 41//36 43//36 44//36
vn -6.309869392807741 28.241057514992463 0
f 44//37 42//37 41//37
v 4021.5762178397235 -2966.77478876519 10
vn -30.493018259089695 27.296764087773226 1.930929137594223
f 45//38 44//38 43//38
v 4021.150084821077 -2969.1915092065865 0
vn -46.978283706625916 18.349005359509647 -2.4325418484891257
f 43//39 46//39 45//39
v 4021.445217827153 -2970.865291658328 10
vn -40.90502893137909 1.3100001257043914 1.426507937432485
f 47//40 45//40 46//40
v 4022.015686977951 -2971.95275 0
vn -27.612407934134353 -8.65602156874047 -0.6338964045055461
f 46//41 48//41 47//41
vn -23.21763060716421 -22.90207270546034 -0.3315415645590059
f 48//42 29//42 32//42
vn -32.177121958061434 -25.289727454260174 0.9145469640207731
f 32//43 47//43 48//43
v 3958.63 -3034.9055 0
v 4041.13 -3034.9055 0
vn 0 0 -544.0462500000126
f 49//44 50//44 7//44
v 3958.63 -3034.9055 10
v 4041.13 -3034.9055 10
f 51//44 52//44 8//44
f 7//44 1//44 49//44
f 8//44 4//44 51//44
v 3958.63 -3034.549354772051 0
vn 0 0 -42.2168135543306
f 53//45 27//45 9//45
v 3958.63 -3034.549354772051 10
vn 0 0 -55.21705952382964
f 54//46 28//46 12//46
vn 0 0 -24.3959481144841
f 9//47 49//47 53//47
f 12//47 51//47 54//47
v 4041.13 -3034.549354772051 0
vn 0 0 -3.86210672339065
f 10//48 55//48 50//48
v 4041.13 -3034.549354772051 10
vn 0 0 -3.9802414046645076
f 11//49 56//49 52//49
vn 0 0 -11.514946042103475
f 50//50 9//50 10//50
vn 0 0 -8.833817149905371
f 52//51 12//51 11//51
v 3958.63 -3033.523875458839 0
vn 0 0 -67.34927092854134
f 27//52 53//52 57//52
v 3958.63 -3033.523875458839 10
vn 0 0 -67.00911567077324
f 28//53 54//53 58//53
v 4041.13 -3033.523875458839 0
vn 0 0 -11.120493100711805
f 10//54 59//54 55//54
v 4041.13 -3033.523875458839 10
vn 0 0 -11.46064835848971
f 11//55 60//55 56//55
v 3958.63 -3031.95275 0
vn 0 0 -147.16654660351188
f 61//56 26//56 27//56
v 3958.63 -3031.95275 10
vn 0 0 -274.4627235335612
f 62//57 25//57 28//57
vn 0 0 -103.18506948583719
f 27//58 57//58 61//58
vn 0 0 -102.66392139581531
f 28//59 58//59 62//59
v 4041.13 -3031.95275 0
vn 0 0 -12.456084436395352
f 13//60 63//60 59//60
v 4041.13 -3031.95275 10
vn 0 0 -13.270067878894803
f 14//61 64//61 60//61
vn 0 0 -44.94889309052803
f 59//62 10//62 13//62
vn 0 0 -32.02967698469473
f 60//63 11//63 14//63
v 3958.63 -3030.025479313212 0
vn 0 0 -173.35489493877438
f 65//64 24//64 26//64
vn 0 0 -122.16137647451094
f 26//65 61//65 65//65
v 3958.63 -3030.025479313212 10
vn 0 0 -120.31590197756398
f 25//66 62//66 66//66
v 4041.13 -3030.025479313212 0
vn 0 0 -15.27964954762829
f 13//67 67//67 63//67
v 4041.13 -3030.025479313212 10
vn 0 0 -16.278148056728224
f 14//68 68//68 64//68
v 3958.63 -3027.974520686788 0
vn 0 0 -128.22610728856438
f 24//69 65//69 69//69
v 3958.63 -3027.974520686788 10
vn 0 0 -128.0375085599361
f 25//70 66//70 70//70
v 4041.13 -3027.974520686788 0
vn 0 0 -16.26026341981043
f 13//71 71//71 67//71
v 4041.13 -3027.974520686788 10
vn 0 0 -17.0541677331974
f 15//72 72//72 68//72
vn 0 0 -34.39211361271272
f 68//73 14//73 15//73
v 3958.63 -3026.04725 0
vn 0 0 -299.47803111199346
f 73//74 21//74 24//74
v 3958.63 -3026.04725 10
vn 0 0 -237.08951597557154
f 74//75 23//75 25//75
vn 0 0 -120.49312681114556
f 24//76 69//76 73//76
f 25//66 70//66 74//66
v 4041.13 -3026.04725 0
vn 0 0 -18.39043887309949
f 16//77 75//77 71//77
v 4041.13 -3026.04725 10
vn 0 0 -16.025675572528005
f 15//78 76//78 72//78
vn 0 0 -40.80875465784443
f 71//79 13//79 16//79
v 3958.63 -3024.476124541161 10
vn 0 0 -150.76474955192143
f 77//80 22//80 23//80
v 3958.63 -3024.476124541161 0
vn 0 0 -101.10975589764669
f 21//81 73//81 78//81
vn 0 0 -99.58686653706532
f 23//82 74//82 77//82
v 4041.13 -3024.476124541161 0
vn 0 0 -14.992023129303472
f 16//83 79//83 75//83
v 4041.13 -3024.476124541161 10
vn 0 0 -17.037583889074757
f 17//84 80//84 76//84
vn 0 0 -29.506130321049493
f 76//85 15//85 17//85
v 3958.63 -3023.450645227949 0
vn 0 0 -65.99470618570412
f 21//86 78//86 81//86
v 3958.63 -3023.450645227949 10
vn 0 0 -67.34927092853063
f 22//87 77//87 82//87
v 4041.13 -3023.450645227949 0
vn 0 0 -12.285447312845017
f 18//88 83//88 79//88
v 4041.13 -3023.450645227949 10
vn 0 0 -11.120493100705275
f 17//89 84//89 80//89
vn 0 0 -16.175053857569257
f 79//90 16//90 18//90
v 3958.63 -3023.0945 0
vn 0 0 -95.84388726071415
f 85//91 19//91 21//91
v 3958.63 -3023.0945 10
vn 0 0 -43.22260534132488
f 86//92 20//92 22//92
vn 0 0 -22.919720929612733
f 21//93 81//93 85//93
vn 0 0 -23.3901563278599
f 22//94 82//94 86//94
v 4041.13 -3023.0945 0
vn 0 0 -4.986033191281422
f 19//95 87//95 83//95
v 4041.13 -3023.0945 10
f 20//95 88//95 84//95
vn 0 0 -4.266691075395144
f 83//96 18//96 19//96
vn 0 0 -10.3910195742741
f 84//97 17//97 20//97
v 3958.63 -2974.9055 0
v 4041.13 -2974.9055 0
vn 0 0 -3975.592500000025
f 89//98 90//98 87//98
v 3958.63 -2974.9055 10
v 4041.13 -2974.9055 10
f 91//98 92//98 88//98
f 87//98 85//98 89//98
f 88//98 86//98 91//98
v 3958.63 -2974.549354772051 0
vn 0 0 -42.21681355429977
f 93//99 29//99 30//99
v 3958.63 -2974.549354772051 10
vn 0 0 -55.2170595239226
f 94//100 32//100 31//100
f 30//47 89//47 93//47
f 31//47 91//47 94//47
v 4041.13 -2974.549354772051 0
vn 0 0 -3.8621067233903257
f 33//101 95//101 90//101
v 4041.13 -2974.549354772051 10
vn 0 0 -3.6618553848195643
f 34//102 96//102 92//102
vn 0 0 -11.514946042109841
f 90//103 30//103 33//103
vn 0 0 -14.573206653903071
f 92//104 31//104 34//104
v 3958.63 -2973.523875458839 0
vn 0 0 -67.34927092854228
f 29//105 93//105 97//105
v 3958.63 -2973.523875458839 10
vn 0 0 -67.00911567077183
f 32//106 94//106 98//106
v 4041.13 -2973.523875458839 0
vn 0 0 -11.120493100710872
f 33//107 99//107 95//107
v 4041.13 -2973.523875458839 10
vn 0 0 -10.543892351824937
f 34//108 100//108 96//108
v 3958.63 -2971.95275 0
vn 0 0 -147.1665466035407
f 101//109 48//109 29//109
v 3958.63 -2971.95275 10
vn 0 0 -204.87144499252463
f 102//110 47//110 32//110
vn 0 0 -103.18506948583861
f 29//111 97//111 101//111
vn 0 0 -102.66392139581316
f 32//112 98//112 102//112
v 4041.13 -2971.95275 0
vn 0 0 -12.456084436397495
f 35//113 103//113 99//113
v 4041.13 -2971.95275 10
vn 0 0 -16.15418028991879
f 34//114 104//114 100//114
vn 0 0 -44.948893090507
f 99//115 33//115 35//115
v 3958.63 -2970.025479313212 0
vn 0 0 -173.35489493868965
f 105//116 46//116 48//116
f 48//65 101//65 105//65
v 3958.63 -2970.025479313212 10
vn 0 0 -121.06192800246107
f 47//117 102//117 106//117
v 4041.13 -2970.025479313212 0
vn 0 0 -15.27964954763092
f 35//118 107//118 103//118
v 4041.13 -2970.025479313212 10
vn 0 0 -15.456874381208994
f 36//119 108//119 104//119
vn 0 0 -43.723698050554034
f 104//120 34//120 36//120
v 3958.63 -2967.974520686788 10
vn 0 0 -257.32452128866726
f 109//121 45//121 47//121
v 3958.63 -2967.974520686788 0
vn 0 0 -128.22610728856625
f 46//122 105//122 110//122
vn 0 0 -128.83141287332026
f 47//123 106//123 109//123
v 4041.13 -2967.974520686788 0
vn 0 0 -16.260263419813228
f 35//124 111//124 107//124
v 4041.13 -2967.974520686788 10
vn 0 0 -16.448862148437787
f 36//125 112//125 108//125
v 3958.63 -2966.04725 0
vn 0 0 -299.4780311120215
f 113//126 43//126 46//126
vn 0 0 -120.49312681114732
f 46//127 110//127 113//127
v 3958.63 -2966.04725 10
vn 0 0 -121.31440048665691
f 45//128 109//128 114//128
v 4041.13 -2966.04725 0
vn 0 0 -18.390438873105627
f 37//129 115//129 111//129
v 4041.13 -2966.04725 10
vn 0 0 -17.125124044577003
f 38//130 116//130 112//130
vn 0 0 -40.808754657892514
f 111//131 35//131 37//131
vn 0 0 -26.270653423875427
f 112//132 36//132 38//132
v 3958.63 -2964.476124541161 10
vn 0 0 -198.2166264967646
f 117//133 44//133 45//133
v 3958.63 -2964.476124541161 0
vn 0 0 -101.10975589764455
f 43//134 113//134 118//134
vn 0 0 -98.89640538562178
f 45//135 114//135 117//135
v 4041.13 -2964.476124541161 0
vn 0 0 -14.992023129308473
f 37//136 119//136 115//136
v 4041.13 -2964.476124541161 10
vn 0 0 -17.037583889077613
f 39//137 120//137 116//137
vn 0 0 -18.92876893139265
f 116//138 38//138 39//138
v 3958.63 -2963.450645227949 0
vn 0 0 -65.99470618570271
f 43//139 118//139 121//139
v 3958.63 -2963.450645227949 10
vn 0 0 -67.349270928546
f 44//140 117//140 122//140
v 4041.13 -2963.450645227949 0
f 40//88 123//88 119//88
v 4041.13 -2963.450645227949 10
vn 0 0 -11.12049310070714
f 39//141 124//141 120//141
vn 0 0 -16.175053857534387
f 119//142 37//142 40//142
v 3958.63 -2963.0945 0
vn 0 0 -95.84388726077646
f 125//143 41//143 43//143
v 3958.63 -2963.0945 10
vn 0 0 -43.222605340733026
f 126//144 42//144 44//144
vn 0 0 -22.91972092961225
f 43//145 121//145 125//145
vn 0 0 -23.390156327865242
f 44//146 122//146 126//146
v 4041.13 -2963.0945 0
f 41//95 127//95 123//95
v 4041.13 -2963.0945 10
f 42//95 128//95 124//95
f 123//96 40//96 41//96
vn 0 0 -10.391019574255647
f 124//147 39//147 42//147
f 2//44 5//44 127//44
f 3//44 6//44 128//44
f 127//44 125//44 2//44
f 128//44 126//44 3//44