%TF.GenerationSoftware,KiCad,Pcbnew,10.0.6-1.fc44*%
%TF.CreationDate,2026-09-18T12:06:03+05:30*%
%TF.ProjectId,tracker,74726163-6b65-4722-9e6b-696361645f70,rev?*%
%TF.SameCoordinates,Original*%
%TF.FileFunction,Paste,Top*%
%TF.FilePolarity,Positive*%
%FSLAX46Y46*%
G04 Gerber Fmt 4.6, Leading zero omitted, Abs format (unit mm)*
G04 Created by KiCad (PCBNEW 10.0.6-1.fc44) date 2026-09-18 12:06:03*
%MOMM*%
%LPD*%
G01*
G04 APERTURE LIST*
G04 Aperture macros list*
%AMRoundRect*
0 Rectangle with rounded corners*
0 $1 Rounding radius*
0 $2 $3 $4 $5 $6 $7 $8 $9 X,Y pos of 4 corners*
0 Add a 4 corners polygon primitive as box body*
4,1,4,$2,$3,$4,$5,$6,$7,$8,$9,$2,$3,0*
0 Add four circle primitives for the rounded corners*
1,1,$1+$1,$2,$3*
1,1,$1+$1,$4,$5*
1,1,$1+$1,$6,$7*
1,1,$1+$1,$8,$9*
0 Add four rect primitives between the rounded corners*
20,1,$1+$1,$2,$3,$4,$5,0*
20,1,$1+$1,$4,$5,$6,$7,0*
20,1,$1+$1,$6,$7,$8,$9,0*
20,1,$1+$1,$8,$9,$2,$3,0*%
G04 Aperture macros list end*
%ADD10RoundRect,0.150000X-0.825000X-0.150000X0.825000X-0.150000X0.825000X0.150000X-0.825000X0.150000X0*%
%ADD11RoundRect,0.250000X-0.255000X-0.440000X0.255000X-0.440000X0.255000X0.440000X-0.255000X0.440000X0*%
%ADD12RoundRect,0.275000X-0.275000X0.975000X-0.275000X-0.975000X0.275000X-0.975000X0.275000X0.975000X0*%
%ADD13C,1.700000*%
%ADD14RoundRect,0.500000X-0.875000X-0.500000X0.875000X-0.500000X0.875000X0.500000X-0.875000X0.500000X0*%
%ADD15RoundRect,0.250000X-0.362500X-1.425000X0.362500X-1.425000X0.362500X1.425000X-0.362500X1.425000X0*%
%ADD16RoundRect,0.150000X-0.150000X0.512500X-0.150000X-0.512500X0.150000X-0.512500X0.150000X0.512500X0*%
%ADD17RoundRect,0.200000X-0.200000X-0.275000X0.200000X-0.275000X0.200000X0.275000X-0.200000X0.275000X0*%
%ADD18RoundRect,0.225000X-0.225000X-0.250000X0.225000X-0.250000X0.225000X0.250000X-0.225000X0.250000X0*%
%ADD19RoundRect,0.087500X-0.187500X-0.087500X0.187500X-0.087500X0.187500X0.087500X-0.187500X0.087500X0*%
%ADD20RoundRect,0.087500X-0.087500X-0.187500X0.087500X-0.187500X0.087500X0.187500X-0.087500X0.187500X0*%
%ADD21R,1.003300X0.558800*%
%ADD22RoundRect,0.150000X-0.575000X0.150000X-0.575000X-0.150000X0.575000X-0.150000X0.575000X0.150000X0*%
%ADD23RoundRect,0.075000X-0.650000X0.075000X-0.650000X-0.075000X0.650000X-0.075000X0.650000X0.075000X0*%
%ADD24RoundRect,0.087500X-0.662500X-0.087500X0.662500X-0.087500X0.662500X0.087500X-0.662500X0.087500X0*%
G04 APERTURE END LIST*
D10*
%TO.C,U5*%
X146450000Y-97500000D03*
X146450000Y-98770000D03*
X146450000Y-100040000D03*
X146450000Y-101310000D03*
X141500000Y-101310000D03*
X141500000Y-100040000D03*
X141500000Y-98770000D03*
X141500000Y-97500000D03*
D11*
X144575000Y-100230000D03*
X144575000Y-98580000D03*
X143375000Y-100230000D03*
X143375000Y-98580000D03*
%TD*%
D12*
%TO.C,U1*%
X122862600Y-102642200D03*
X120322600Y-102642200D03*
D13*
X123278000Y-96032200D03*
X120830600Y-96089000D03*
X123370600Y-93549000D03*
X120830600Y-93549000D03*
X123370600Y-91009000D03*
X120830600Y-91009000D03*
X123370600Y-88469000D03*
X120830600Y-88469000D03*
D14*
X130214000Y-89490500D03*
X130214000Y-92030500D03*
X130214000Y-94570500D03*
X130214000Y-97110500D03*
X130214000Y-99650500D03*
X130214000Y-102190500D03*
X130214000Y-104730500D03*
X114049000Y-104730500D03*
X114049000Y-102190500D03*
X114049000Y-99650500D03*
X114049000Y-97110500D03*
X114049000Y-94570500D03*
X114049000Y-92030500D03*
X114049000Y-89490500D03*
%TD*%
D15*
%TO.C,R1*%
X133425000Y-112000000D03*
X127500000Y-112000000D03*
%TD*%
D16*
%TO.C,U3*%
X147000000Y-106000000D03*
X146050000Y-106000000D03*
X145100000Y-106000000D03*
X145100000Y-108275000D03*
X146050000Y-108275000D03*
X147000000Y-108275000D03*
%TD*%
D17*
%TO.C,R7*%
X135180000Y-101315000D03*
X136830000Y-101315000D03*
%TD*%
D18*
%TO.C,C2*%
X129225000Y-122500000D03*
X130775000Y-122500000D03*
%TD*%
%TO.C,C3*%
X120725000Y-113500000D03*
X122275000Y-113500000D03*
%TD*%
%TO.C,C6*%
X135230000Y-88765000D03*
X136780000Y-88765000D03*
%TD*%
%TO.C,C1*%
X124725000Y-122500000D03*
X126275000Y-122500000D03*
%TD*%
D17*
%TO.C,R6*%
X135180000Y-98805000D03*
X136830000Y-98805000D03*
%TD*%
%TO.C,R2*%
X115000000Y-118500000D03*
X116650000Y-118500000D03*
%TD*%
D18*
%TO.C,C5*%
X135230000Y-86255000D03*
X136780000Y-86255000D03*
%TD*%
%TO.C,C7*%
X135230000Y-91275000D03*
X136780000Y-91275000D03*
%TD*%
D17*
%TO.C,R4*%
X135180000Y-93785000D03*
X136830000Y-93785000D03*
%TD*%
%TO.C,R5*%
X135180000Y-96295000D03*
X136830000Y-96295000D03*
%TD*%
%TO.C,R3*%
X115000000Y-123000000D03*
X116650000Y-123000000D03*
%TD*%
D19*
%TO.C,U2*%
X124500000Y-116000000D03*
X124500000Y-116500000D03*
X124500000Y-117000000D03*
X124500000Y-117500000D03*
X124500000Y-118000000D03*
D20*
X125225000Y-118225000D03*
X125725000Y-118225000D03*
X126225000Y-118225000D03*
D19*
X126950000Y-118000000D03*
X126950000Y-117500000D03*
X126950000Y-117000000D03*
X126950000Y-116500000D03*
X126950000Y-116000000D03*
D20*
X126225000Y-115775000D03*
X125725000Y-115775000D03*
X125225000Y-115775000D03*
%TD*%
D17*
%TO.C,R9*%
X135180000Y-103825000D03*
X136830000Y-103825000D03*
%TD*%
D21*
%TO.C,Q1*%
X137500000Y-110599998D03*
X137500000Y-111549999D03*
X137500000Y-112500000D03*
X140205100Y-112500000D03*
X140205100Y-111549999D03*
X140205100Y-110599998D03*
%TD*%
D22*
%TO.C,J1*%
X147500000Y-86000000D03*
X147500000Y-86800000D03*
D23*
X147500000Y-88000000D03*
X147500000Y-89000000D03*
X147500000Y-89500000D03*
X147500000Y-90500000D03*
D22*
X147500000Y-91700000D03*
X147500000Y-92500000D03*
X147500000Y-92500000D03*
X147500000Y-91700000D03*
D23*
X147500000Y-91000000D03*
X147500000Y-90000000D03*
X147500000Y-88500000D03*
X147500000Y-87500000D03*
D22*
X147500000Y-86800000D03*
X147500000Y-86000000D03*
%TD*%
D24*
%TO.C,U4*%
X114050000Y-112500000D03*
X114050000Y-113000000D03*
X114050000Y-113500000D03*
X114050000Y-114000000D03*
X114050000Y-114500000D03*
X118250000Y-114500000D03*
X118250000Y-114000000D03*
X118250000Y-113500000D03*
X118250000Y-113000000D03*
X118250000Y-112500000D03*
%TD*%
M02*
