%TF.GenerationSoftware,KiCad,Pcbnew,10.0.6-1.fc44*%
%TF.CreationDate,2026-09-18T12:06:03+05:30*%
%TF.ProjectId,tracker,74726163-6b65-4722-9e6b-696361645f70,rev?*%
%TF.SameCoordinates,Original*%
%TF.FileFunction,Copper,L1,Top*%
%TF.FilePolarity,Positive*%
%FSLAX46Y46*%
G04 Gerber Fmt 4.6, Leading zero omitted, Abs format (unit mm)*
G04 Created by KiCad (PCBNEW 10.0.6-1.fc44) date 2026-09-18 12:06:03*
%MOMM*%
%LPD*%
G01*
G04 APERTURE LIST*
G04 Aperture macros list*
%AMRoundRect*
0 Rectangle with rounded corners*
0 $1 Rounding radius*
0 $2 $3 $4 $5 $6 $7 $8 $9 X,Y pos of 4 corners*
0 Add a 4 corners polygon primitive as box body*
4,1,4,$2,$3,$4,$5,$6,$7,$8,$9,$2,$3,0*
0 Add four circle primitives for the rounded corners*
1,1,$1+$1,$2,$3*
1,1,$1+$1,$4,$5*
1,1,$1+$1,$6,$7*
1,1,$1+$1,$8,$9*
0 Add four rect primitives between the rounded corners*
20,1,$1+$1,$2,$3,$4,$5,0*
20,1,$1+$1,$4,$5,$6,$7,0*
20,1,$1+$1,$6,$7,$8,$9,0*
20,1,$1+$1,$8,$9,$2,$3,0*%
G04 Aperture macros list end*
%TA.AperFunction,HeatsinkPad*%
%ADD10C,0.500000*%
%TD*%
%TA.AperFunction,HeatsinkPad*%
%ADD11R,2.410000X3.300000*%
%TD*%
%TA.AperFunction,SMDPad,CuDef*%
%ADD12RoundRect,0.150000X-0.825000X-0.150000X0.825000X-0.150000X0.825000X0.150000X-0.825000X0.150000X0*%
%TD*%
%TA.AperFunction,SMDPad,CuDef*%
%ADD13RoundRect,0.275000X-0.275000X0.975000X-0.275000X-0.975000X0.275000X-0.975000X0.275000X0.975000X0*%
%TD*%
%TA.AperFunction,SMDPad,CuDef*%
%ADD14C,1.700000*%
%TD*%
%TA.AperFunction,SMDPad,CuDef*%
%ADD15RoundRect,0.500000X-0.875000X-0.500000X0.875000X-0.500000X0.875000X0.500000X-0.875000X0.500000X0*%
%TD*%
%TA.AperFunction,SMDPad,CuDef*%
%ADD16RoundRect,0.250000X-0.362500X-1.425000X0.362500X-1.425000X0.362500X1.425000X-0.362500X1.425000X0*%
%TD*%
%TA.AperFunction,ComponentPad*%
%ADD17O,1.200000X1.750000*%
%TD*%
%TA.AperFunction,ComponentPad*%
%ADD18RoundRect,0.250000X-0.350000X-0.625000X0.350000X-0.625000X0.350000X0.625000X-0.350000X0.625000X0*%
%TD*%
%TA.AperFunction,SMDPad,CuDef*%
%ADD19RoundRect,0.150000X-0.150000X0.512500X-0.150000X-0.512500X0.150000X-0.512500X0.150000X0.512500X0*%
%TD*%
%TA.AperFunction,SMDPad,CuDef*%
%ADD20RoundRect,0.200000X-0.200000X-0.275000X0.200000X-0.275000X0.200000X0.275000X-0.200000X0.275000X0*%
%TD*%
%TA.AperFunction,SMDPad,CuDef*%
%ADD21RoundRect,0.225000X-0.225000X-0.250000X0.225000X-0.250000X0.225000X0.250000X-0.225000X0.250000X0*%
%TD*%
%TA.AperFunction,SMDPad,CuDef*%
%ADD22RoundRect,0.087500X-0.187500X-0.087500X0.187500X-0.087500X0.187500X0.087500X-0.187500X0.087500X0*%
%TD*%
%TA.AperFunction,SMDPad,CuDef*%
%ADD23RoundRect,0.087500X-0.087500X-0.187500X0.087500X-0.187500X0.087500X0.187500X-0.087500X0.187500X0*%
%TD*%
%TA.AperFunction,SMDPad,CuDef*%
%ADD24R,1.003300X0.558800*%
%TD*%
%TA.AperFunction,SMDPad,CuDef*%
%ADD25RoundRect,0.150000X-0.575000X0.150000X-0.575000X-0.150000X0.575000X-0.150000X0.575000X0.150000X0*%
%TD*%
%TA.AperFunction,SMDPad,CuDef*%
%ADD26RoundRect,0.075000X-0.650000X0.075000X-0.650000X-0.075000X0.650000X-0.075000X0.650000X0.075000X0*%
%TD*%
%TA.AperFunction,ComponentPad*%
%ADD27O,2.100000X1.000000*%
%TD*%
%TA.AperFunction,ComponentPad*%
%ADD28O,1.600000X1.000000*%
%TD*%
%TA.AperFunction,SMDPad,CuDef*%
%ADD29RoundRect,0.087500X-0.662500X-0.087500X0.662500X-0.087500X0.662500X0.087500X-0.662500X0.087500X0*%
%TD*%
G04 APERTURE END LIST*
D10*
%TO.P,U5,9,EPAD_9*%
%TO.N,GND*%
X144675000Y-100605000D03*
X144675000Y-99405000D03*
X144675000Y-98205000D03*
D11*
X143975000Y-99405000D03*
D10*
X143275000Y-100605000D03*
X143275000Y-99405000D03*
X143275000Y-98205000D03*
D12*
%TO.P,U5,8,CE_8*%
%TO.N,Net-(U5-CE)*%
X146450000Y-97500000D03*
%TO.P,U5,7,~{CHRG}_7*%
%TO.N,unconnected-(U5-~{CHRG}-Pad7)*%
X146450000Y-98770000D03*
%TO.P,U5,6,~{STDBY}_6*%
%TO.N,unconnected-(U5-~{STDBY}-Pad6)*%
X146450000Y-100040000D03*
%TO.P,U5,5,BAT_5*%
%TO.N,/Charging_and_Battery/BAT+*%
X146450000Y-101310000D03*
%TO.P,U5,4,V_{CC}_4*%
%TO.N,Net-(U5-CE)*%
X141500000Y-101310000D03*
%TO.P,U5,3,GND_3*%
%TO.N,GND*%
X141500000Y-100040000D03*
%TO.P,U5,2,PROG_2*%
%TO.N,Net-(U5-PROG)*%
X141500000Y-98770000D03*
%TO.P,U5,1,TEMP_1*%
%TO.N,GND*%
X141500000Y-97500000D03*
%TD*%
D13*
%TO.P,U1,24,GND_24*%
%TO.N,GND*%
X122862600Y-102642200D03*
%TO.P,U1,23,VBAT_23*%
%TO.N,/Shunt_Output*%
X120322600Y-102642200D03*
D14*
%TO.P,U1,22,3V3_OUT_22*%
%TO.N,unconnected-(U1-3V3_OUT-Pad22)*%
X123278000Y-96032200D03*
%TO.P,U1,21,BOOT_21*%
%TO.N,unconnected-(U1-BOOT-Pad21)*%
X120830600Y-96089000D03*
%TO.P,U1,20,MTCK_20*%
%TO.N,unconnected-(U1-MTCK-Pad20)*%
X123370600Y-93549000D03*
%TO.P,U1,19,MTMS_19*%
%TO.N,unconnected-(U1-MTMS-Pad19)*%
X120830600Y-93549000D03*
%TO.P,U1,18,GND_18*%
%TO.N,unconnected-(U1-GND-Pad18)*%
X123370600Y-91009000D03*
%TO.P,U1,17,EN_17*%
%TO.N,unconnected-(U1-EN-Pad17)*%
X120830600Y-91009000D03*
%TO.P,U1,16,MTDO_16*%
%TO.N,unconnected-(U1-MTDO-Pad16)*%
X123370600Y-88469000D03*
%TO.P,U1,15,MTDI_15*%
%TO.N,unconnected-(U1-MTDI-Pad15)*%
X120830600Y-88469000D03*
D15*
%TO.P,U1,14,VBUS_14*%
%TO.N,unconnected-(U1-VBUS-Pad14)*%
X130214000Y-89490500D03*
%TO.P,U1,13,GND_13*%
%TO.N,GND*%
X130214000Y-92030500D03*
%TO.P,U1,12,3V3_OUT_12*%
%TO.N,Net-(U2-CS)*%
X130214000Y-94570500D03*
%TO.P,U1,11,D10_11*%
%TO.N,unconnected-(U1-D10-Pad11)*%
X130214000Y-97110500D03*
%TO.P,U1,10,D9_10*%
%TO.N,unconnected-(U1-D9-Pad10)*%
X130214000Y-99650500D03*
%TO.P,U1,9,D8_9*%
%TO.N,unconnected-(U1-D8-Pad9)*%
X130214000Y-102190500D03*
%TO.P,U1,8,D7_8*%
%TO.N,unconnected-(U1-D7-Pad8)*%
X130214000Y-104730500D03*
%TO.P,U1,7,D6_7*%
%TO.N,unconnected-(U1-D6-Pad7)*%
X114049000Y-104730500D03*
%TO.P,U1,6,D5_6*%
%TO.N,Net-(U1-D5)*%
X114049000Y-102190500D03*
%TO.P,U1,5,D4_5*%
%TO.N,Net-(U1-D4)*%
X114049000Y-99650500D03*
%TO.P,U1,4,D3_4*%
%TO.N,unconnected-(U1-D3-Pad4)*%
X114049000Y-97110500D03*
%TO.P,U1,3,D2_3*%
%TO.N,Net-(U1-D2)*%
X114049000Y-94570500D03*
%TO.P,U1,2,D1_2*%
%TO.N,unconnected-(U1-D1-Pad2)*%
X114049000Y-92030500D03*
%TO.P,U1,1,D0_1*%
%TO.N,Net-(U1-D0)*%
X114049000Y-89490500D03*
%TD*%
D16*
%TO.P,R1,2*%
%TO.N,/Shunt_Output*%
X133425000Y-112000000D03*
%TO.P,R1,1*%
%TO.N,/Charging_and_Battery/BAT+*%
X127500000Y-112000000D03*
%TD*%
D17*
%TO.P,BT1,2,-_2*%
%TO.N,/Charging_and_Battery/BAT-*%
X144000000Y-117550000D03*
D18*
%TO.P,BT1,1,+_1*%
%TO.N,/Charging_and_Battery/BAT+*%
X142000000Y-117550000D03*
%TD*%
D19*
%TO.P,U3,1,OD_1*%
%TO.N,Net-(U3-OD)*%
X147000000Y-106000000D03*
%TO.P,U3,2,CS_2*%
%TO.N,Net-(U3-CS)*%
X146050000Y-106000000D03*
%TO.P,U3,3,OC_3*%
%TO.N,Net-(U3-OC)*%
X145100000Y-106000000D03*
%TO.P,U3,4,TD_4*%
%TO.N,unconnected-(U3-TD-Pad4)*%
X145100000Y-108275000D03*
%TO.P,U3,5,VCC_5*%
%TO.N,Net-(U3-VCC)*%
X146050000Y-108275000D03*
%TO.P,U3,6,GND_6*%
%TO.N,/Charging_and_Battery/BAT-*%
X147000000Y-108275000D03*
%TD*%
D20*
%TO.P,R7,1*%
%TO.N,/Charging_and_Battery/BAT+*%
X135180000Y-101315000D03*
%TO.P,R7,2*%
%TO.N,Net-(U3-VCC)*%
X136830000Y-101315000D03*
%TD*%
D21*
%TO.P,C2,1*%
%TO.N,GND*%
X129225000Y-122500000D03*
%TO.P,C2,2*%
%TO.N,Net-(U2-CS)*%
X130775000Y-122500000D03*
%TD*%
%TO.P,C3,1*%
%TO.N,Net-(U2-CS)*%
X120725000Y-113500000D03*
%TO.P,C3,2*%
%TO.N,GND*%
X122275000Y-113500000D03*
%TD*%
%TO.P,C6,1*%
%TO.N,/Charging_and_Battery/BAT+*%
X135230000Y-88765000D03*
%TO.P,C6,2*%
%TO.N,GND*%
X136780000Y-88765000D03*
%TD*%
%TO.P,C1,1*%
%TO.N,GND*%
X124725000Y-122500000D03*
%TO.P,C1,2*%
%TO.N,Net-(U2-CS)*%
X126275000Y-122500000D03*
%TD*%
D20*
%TO.P,R6,1*%
%TO.N,Net-(J1-CC1)*%
X135180000Y-98805000D03*
%TO.P,R6,2*%
%TO.N,GND*%
X136830000Y-98805000D03*
%TD*%
%TO.P,R2,1*%
%TO.N,Net-(U1-D5)*%
X115000000Y-118500000D03*
%TO.P,R2,2*%
%TO.N,Net-(U2-CS)*%
X116650000Y-118500000D03*
%TD*%
D21*
%TO.P,C5,1*%
%TO.N,Net-(U5-CE)*%
X135230000Y-86255000D03*
%TO.P,C5,2*%
%TO.N,GND*%
X136780000Y-86255000D03*
%TD*%
%TO.P,C7,1*%
%TO.N,Net-(U3-VCC)*%
X135230000Y-91275000D03*
%TO.P,C7,2*%
%TO.N,/Charging_and_Battery/BAT-*%
X136780000Y-91275000D03*
%TD*%
D20*
%TO.P,R4,1*%
%TO.N,Net-(U5-PROG)*%
X135180000Y-93785000D03*
%TO.P,R4,2*%
%TO.N,GND*%
X136830000Y-93785000D03*
%TD*%
%TO.P,R5,1*%
%TO.N,Net-(J1-CC2)*%
X135180000Y-96295000D03*
%TO.P,R5,2*%
%TO.N,GND*%
X136830000Y-96295000D03*
%TD*%
%TO.P,R3,1*%
%TO.N,Net-(U2-CS)*%
X115000000Y-123000000D03*
%TO.P,R3,2*%
%TO.N,Net-(U1-D4)*%
X116650000Y-123000000D03*
%TD*%
D22*
%TO.P,U2,1,VDD_IO_1*%
%TO.N,Net-(U2-CS)*%
X124500000Y-116000000D03*
%TO.P,U2,2,NC_2*%
%TO.N,unconnected-(U2-NC-Pad2)*%
X124500000Y-116500000D03*
%TO.P,U2,3,NC_3*%
%TO.N,unconnected-(U2-NC-Pad3)*%
X124500000Y-117000000D03*
%TO.P,U2,4,SPC_4*%
%TO.N,Net-(U1-D5)*%
X124500000Y-117500000D03*
%TO.P,U2,5,GND_5*%
%TO.N,GND*%
X124500000Y-118000000D03*
D23*
%TO.P,U2,6,SDI_6*%
%TO.N,Net-(U1-D4)*%
X125225000Y-118225000D03*
%TO.P,U2,7,SDO_7*%
%TO.N,unconnected-(U2-SDO-Pad7)*%
X125725000Y-118225000D03*
%TO.P,U2,8,CS_8*%
%TO.N,Net-(U2-CS)*%
X126225000Y-118225000D03*
D22*
%TO.P,U2,9,INT2_9*%
%TO.N,unconnected-(U2-INT2-Pad9)*%
X126950000Y-118000000D03*
%TO.P,U2,10,GND_10*%
%TO.N,GND*%
X126950000Y-117500000D03*
%TO.P,U2,11,INT1_11*%
%TO.N,Net-(U1-D2)*%
X126950000Y-117000000D03*
%TO.P,U2,12,GND_12*%
%TO.N,GND*%
X126950000Y-116500000D03*
%TO.P,U2,13,ADC3_13*%
%TO.N,unconnected-(U2-ADC3-Pad13)*%
X126950000Y-116000000D03*
D23*
%TO.P,U2,14,VDD_14*%
%TO.N,Net-(U2-CS)*%
X126225000Y-115775000D03*
%TO.P,U2,15,ADC2_15*%
%TO.N,unconnected-(U2-ADC2-Pad15)*%
X125725000Y-115775000D03*
%TO.P,U2,16,ADC1_16*%
%TO.N,unconnected-(U2-ADC1-Pad16)*%
X125225000Y-115775000D03*
%TD*%
D20*
%TO.P,R9,1*%
%TO.N,Net-(U3-CS)*%
X135180000Y-103825000D03*
%TO.P,R9,2*%
%TO.N,GND*%
X136830000Y-103825000D03*
%TD*%
D24*
%TO.P,Q1,1,1_1*%
%TO.N,/Charging_and_Battery/BAT-*%
X137500000Y-110599998D03*
%TO.P,Q1,2,2_2*%
%TO.N,/Charging_and_Battery/PROTECT_MID*%
X137500000Y-111549999D03*
%TO.P,Q1,3,3_3*%
%TO.N,GND*%
X137500000Y-112500000D03*
%TO.P,Q1,4,4_4*%
%TO.N,Net-(U3-OC)*%
X140205100Y-112500000D03*
%TO.P,Q1,5,5_5*%
%TO.N,/Charging_and_Battery/PROTECT_MID*%
X140205100Y-111549999D03*
%TO.P,Q1,6,6_6*%
%TO.N,Net-(U3-OD)*%
X140205100Y-110599998D03*
%TD*%
D25*
%TO.P,J1,A1*%
%TO.N,N/C*%
X147500000Y-86000000D03*
%TO.P,J1,A4*%
X147500000Y-86800000D03*
D26*
%TO.P,J1,A5,CC1_A5*%
%TO.N,Net-(J1-CC1)*%
X147500000Y-88000000D03*
%TO.P,J1,A6*%
%TO.N,N/C*%
X147500000Y-89000000D03*
%TO.P,J1,A7*%
X147500000Y-89500000D03*
%TO.P,J1,A8*%
X147500000Y-90500000D03*
D25*
%TO.P,J1,A9,VBUS_A9*%
%TO.N,Net-(U5-CE)*%
X147500000Y-91700000D03*
%TO.P,J1,A12,GND_A12*%
%TO.N,GND*%
X147500000Y-92500000D03*
%TO.P,J1,B1*%
%TO.N,N/C*%
X147500000Y-92500000D03*
%TO.P,J1,B4*%
X147500000Y-91700000D03*
D26*
%TO.P,J1,B5,CC2_B5*%
%TO.N,Net-(J1-CC2)*%
X147500000Y-91000000D03*
%TO.P,J1,B6*%
%TO.N,N/C*%
X147500000Y-90000000D03*
%TO.P,J1,B7*%
X147500000Y-88500000D03*
%TO.P,J1,B8*%
X147500000Y-87500000D03*
D25*
%TO.P,J1,B9,VBUS_B9*%
%TO.N,Net-(U5-CE)*%
X147500000Y-86800000D03*
%TO.P,J1,B12,GND_B12*%
%TO.N,GND*%
X147500000Y-86000000D03*
D27*
%TO.P,J1,SH,SHIELD_SH*%
X146585000Y-84930000D03*
D28*
X142405000Y-84930000D03*
D27*
X146585000Y-93570000D03*
D28*
X142405000Y-93570000D03*
%TD*%
D29*
%TO.P,U4,1,A1_1*%
%TO.N,GND*%
X114050000Y-112500000D03*
%TO.P,U4,2,A0_2*%
X114050000Y-113000000D03*
%TO.P,U4,3,Alert_3*%
%TO.N,Net-(U1-D0)*%
X114050000Y-113500000D03*
%TO.P,U4,4,SDA_4*%
%TO.N,Net-(U1-D4)*%
X114050000Y-114000000D03*
%TO.P,U4,5,SCL_5*%
%TO.N,Net-(U1-D5)*%
X114050000Y-114500000D03*
%TO.P,U4,6,VS+_6*%
%TO.N,Net-(U2-CS)*%
X118250000Y-114500000D03*
%TO.P,U4,7,GND_7*%
%TO.N,GND*%
X118250000Y-114000000D03*
%TO.P,U4,8,VBUS_8*%
%TO.N,/Shunt_Output*%
X118250000Y-113500000D03*
%TO.P,U4,9,VIN-_9*%
X118250000Y-113000000D03*
%TO.P,U4,10,VIN+_10*%
%TO.N,/Charging_and_Battery/BAT+*%
X118250000Y-112500000D03*
%TD*%
M02*
