%TF.GenerationSoftware,KiCad,Pcbnew,10.0.6-1.fc44*%
%TF.CreationDate,2026-09-18T12:06:03+05:30*%
%TF.ProjectId,tracker,74726163-6b65-4722-9e6b-696361645f70,rev?*%
%TF.SameCoordinates,Original*%
%TF.FileFunction,Legend,Top*%
%TF.FilePolarity,Positive*%
%FSLAX46Y46*%
G04 Gerber Fmt 4.6, Leading zero omitted, Abs format (unit mm)*
G04 Created by KiCad (PCBNEW 10.0.6-1.fc44) date 2026-09-18 12:06:03*
%MOMM*%
%LPD*%
G01*
G04 APERTURE LIST*
%ADD10C,0.150000*%
%ADD11C,0.106680*%
%ADD12C,0.120000*%
%ADD13C,0.504000*%
%ADD14C,0.100000*%
%ADD15C,0.127000*%
%ADD16C,0.152400*%
G04 APERTURE END LIST*
D10*
X143213095Y-95459819D02*
X143213095Y-96269342D01*
X143213095Y-96269342D02*
X143260714Y-96364580D01*
X143260714Y-96364580D02*
X143308333Y-96412200D01*
X143308333Y-96412200D02*
X143403571Y-96459819D01*
X143403571Y-96459819D02*
X143594047Y-96459819D01*
X143594047Y-96459819D02*
X143689285Y-96412200D01*
X143689285Y-96412200D02*
X143736904Y-96364580D01*
X143736904Y-96364580D02*
X143784523Y-96269342D01*
X143784523Y-96269342D02*
X143784523Y-95459819D01*
X144736904Y-95459819D02*
X144260714Y-95459819D01*
X144260714Y-95459819D02*
X144213095Y-95936009D01*
X144213095Y-95936009D02*
X144260714Y-95888390D01*
X144260714Y-95888390D02*
X144355952Y-95840771D01*
X144355952Y-95840771D02*
X144594047Y-95840771D01*
X144594047Y-95840771D02*
X144689285Y-95888390D01*
X144689285Y-95888390D02*
X144736904Y-95936009D01*
X144736904Y-95936009D02*
X144784523Y-96031247D01*
X144784523Y-96031247D02*
X144784523Y-96269342D01*
X144784523Y-96269342D02*
X144736904Y-96364580D01*
X144736904Y-96364580D02*
X144689285Y-96412200D01*
X144689285Y-96412200D02*
X144594047Y-96459819D01*
X144594047Y-96459819D02*
X144355952Y-96459819D01*
X144355952Y-96459819D02*
X144260714Y-96412200D01*
X144260714Y-96412200D02*
X144213095Y-96364580D01*
D11*
X120582450Y-85390891D02*
X120582450Y-86024198D01*
X120582450Y-86024198D02*
X120619704Y-86098704D01*
X120619704Y-86098704D02*
X120656957Y-86135958D01*
X120656957Y-86135958D02*
X120731464Y-86173211D01*
X120731464Y-86173211D02*
X120880477Y-86173211D01*
X120880477Y-86173211D02*
X120954984Y-86135958D01*
X120954984Y-86135958D02*
X120992237Y-86098704D01*
X120992237Y-86098704D02*
X121029490Y-86024198D01*
X121029490Y-86024198D02*
X121029490Y-85390891D01*
X121811810Y-86173211D02*
X121364770Y-86173211D01*
X121588290Y-86173211D02*
X121588290Y-85390891D01*
X121588290Y-85390891D02*
X121513783Y-85502651D01*
X121513783Y-85502651D02*
X121439277Y-85577158D01*
X121439277Y-85577158D02*
X121364770Y-85614411D01*
D10*
X130295833Y-109824819D02*
X129962500Y-109348628D01*
X129724405Y-109824819D02*
X129724405Y-108824819D01*
X129724405Y-108824819D02*
X130105357Y-108824819D01*
X130105357Y-108824819D02*
X130200595Y-108872438D01*
X130200595Y-108872438D02*
X130248214Y-108920057D01*
X130248214Y-108920057D02*
X130295833Y-109015295D01*
X130295833Y-109015295D02*
X130295833Y-109158152D01*
X130295833Y-109158152D02*
X130248214Y-109253390D01*
X130248214Y-109253390D02*
X130200595Y-109301009D01*
X130200595Y-109301009D02*
X130105357Y-109348628D01*
X130105357Y-109348628D02*
X129724405Y-109348628D01*
X131248214Y-109824819D02*
X130676786Y-109824819D01*
X130962500Y-109824819D02*
X130962500Y-108824819D01*
X130962500Y-108824819D02*
X130867262Y-108967676D01*
X130867262Y-108967676D02*
X130772024Y-109062914D01*
X130772024Y-109062914D02*
X130676786Y-109110533D01*
X142214285Y-114931009D02*
X142357142Y-114978628D01*
X142357142Y-114978628D02*
X142404761Y-115026247D01*
X142404761Y-115026247D02*
X142452380Y-115121485D01*
X142452380Y-115121485D02*
X142452380Y-115264342D01*
X142452380Y-115264342D02*
X142404761Y-115359580D01*
X142404761Y-115359580D02*
X142357142Y-115407200D01*
X142357142Y-115407200D02*
X142261904Y-115454819D01*
X142261904Y-115454819D02*
X141880952Y-115454819D01*
X141880952Y-115454819D02*
X141880952Y-114454819D01*
X141880952Y-114454819D02*
X142214285Y-114454819D01*
X142214285Y-114454819D02*
X142309523Y-114502438D01*
X142309523Y-114502438D02*
X142357142Y-114550057D01*
X142357142Y-114550057D02*
X142404761Y-114645295D01*
X142404761Y-114645295D02*
X142404761Y-114740533D01*
X142404761Y-114740533D02*
X142357142Y-114835771D01*
X142357142Y-114835771D02*
X142309523Y-114883390D01*
X142309523Y-114883390D02*
X142214285Y-114931009D01*
X142214285Y-114931009D02*
X141880952Y-114931009D01*
X142738095Y-114454819D02*
X143309523Y-114454819D01*
X143023809Y-115454819D02*
X143023809Y-114454819D01*
X144166666Y-115454819D02*
X143595238Y-115454819D01*
X143880952Y-115454819D02*
X143880952Y-114454819D01*
X143880952Y-114454819D02*
X143785714Y-114597676D01*
X143785714Y-114597676D02*
X143690476Y-114692914D01*
X143690476Y-114692914D02*
X143595238Y-114740533D01*
X147904819Y-107899404D02*
X148714342Y-107899404D01*
X148714342Y-107899404D02*
X148809580Y-107851785D01*
X148809580Y-107851785D02*
X148857200Y-107804166D01*
X148857200Y-107804166D02*
X148904819Y-107708928D01*
X148904819Y-107708928D02*
X148904819Y-107518452D01*
X148904819Y-107518452D02*
X148857200Y-107423214D01*
X148857200Y-107423214D02*
X148809580Y-107375595D01*
X148809580Y-107375595D02*
X148714342Y-107327976D01*
X148714342Y-107327976D02*
X147904819Y-107327976D01*
X147904819Y-106947023D02*
X147904819Y-106327976D01*
X147904819Y-106327976D02*
X148285771Y-106661309D01*
X148285771Y-106661309D02*
X148285771Y-106518452D01*
X148285771Y-106518452D02*
X148333390Y-106423214D01*
X148333390Y-106423214D02*
X148381009Y-106375595D01*
X148381009Y-106375595D02*
X148476247Y-106327976D01*
X148476247Y-106327976D02*
X148714342Y-106327976D01*
X148714342Y-106327976D02*
X148809580Y-106375595D01*
X148809580Y-106375595D02*
X148857200Y-106423214D01*
X148857200Y-106423214D02*
X148904819Y-106518452D01*
X148904819Y-106518452D02*
X148904819Y-106804166D01*
X148904819Y-106804166D02*
X148857200Y-106899404D01*
X148857200Y-106899404D02*
X148809580Y-106947023D01*
X135838333Y-100339819D02*
X135505000Y-99863628D01*
X135266905Y-100339819D02*
X135266905Y-99339819D01*
X135266905Y-99339819D02*
X135647857Y-99339819D01*
X135647857Y-99339819D02*
X135743095Y-99387438D01*
X135743095Y-99387438D02*
X135790714Y-99435057D01*
X135790714Y-99435057D02*
X135838333Y-99530295D01*
X135838333Y-99530295D02*
X135838333Y-99673152D01*
X135838333Y-99673152D02*
X135790714Y-99768390D01*
X135790714Y-99768390D02*
X135743095Y-99816009D01*
X135743095Y-99816009D02*
X135647857Y-99863628D01*
X135647857Y-99863628D02*
X135266905Y-99863628D01*
X136171667Y-99339819D02*
X136838333Y-99339819D01*
X136838333Y-99339819D02*
X136409762Y-100339819D01*
X129833333Y-121429580D02*
X129785714Y-121477200D01*
X129785714Y-121477200D02*
X129642857Y-121524819D01*
X129642857Y-121524819D02*
X129547619Y-121524819D01*
X129547619Y-121524819D02*
X129404762Y-121477200D01*
X129404762Y-121477200D02*
X129309524Y-121381961D01*
X129309524Y-121381961D02*
X129261905Y-121286723D01*
X129261905Y-121286723D02*
X129214286Y-121096247D01*
X129214286Y-121096247D02*
X129214286Y-120953390D01*
X129214286Y-120953390D02*
X129261905Y-120762914D01*
X129261905Y-120762914D02*
X129309524Y-120667676D01*
X129309524Y-120667676D02*
X129404762Y-120572438D01*
X129404762Y-120572438D02*
X129547619Y-120524819D01*
X129547619Y-120524819D02*
X129642857Y-120524819D01*
X129642857Y-120524819D02*
X129785714Y-120572438D01*
X129785714Y-120572438D02*
X129833333Y-120620057D01*
X130214286Y-120620057D02*
X130261905Y-120572438D01*
X130261905Y-120572438D02*
X130357143Y-120524819D01*
X130357143Y-120524819D02*
X130595238Y-120524819D01*
X130595238Y-120524819D02*
X130690476Y-120572438D01*
X130690476Y-120572438D02*
X130738095Y-120620057D01*
X130738095Y-120620057D02*
X130785714Y-120715295D01*
X130785714Y-120715295D02*
X130785714Y-120810533D01*
X130785714Y-120810533D02*
X130738095Y-120953390D01*
X130738095Y-120953390D02*
X130166667Y-121524819D01*
X130166667Y-121524819D02*
X130785714Y-121524819D01*
X121333333Y-112429580D02*
X121285714Y-112477200D01*
X121285714Y-112477200D02*
X121142857Y-112524819D01*
X121142857Y-112524819D02*
X121047619Y-112524819D01*
X121047619Y-112524819D02*
X120904762Y-112477200D01*
X120904762Y-112477200D02*
X120809524Y-112381961D01*
X120809524Y-112381961D02*
X120761905Y-112286723D01*
X120761905Y-112286723D02*
X120714286Y-112096247D01*
X120714286Y-112096247D02*
X120714286Y-111953390D01*
X120714286Y-111953390D02*
X120761905Y-111762914D01*
X120761905Y-111762914D02*
X120809524Y-111667676D01*
X120809524Y-111667676D02*
X120904762Y-111572438D01*
X120904762Y-111572438D02*
X121047619Y-111524819D01*
X121047619Y-111524819D02*
X121142857Y-111524819D01*
X121142857Y-111524819D02*
X121285714Y-111572438D01*
X121285714Y-111572438D02*
X121333333Y-111620057D01*
X121666667Y-111524819D02*
X122285714Y-111524819D01*
X122285714Y-111524819D02*
X121952381Y-111905771D01*
X121952381Y-111905771D02*
X122095238Y-111905771D01*
X122095238Y-111905771D02*
X122190476Y-111953390D01*
X122190476Y-111953390D02*
X122238095Y-112001009D01*
X122238095Y-112001009D02*
X122285714Y-112096247D01*
X122285714Y-112096247D02*
X122285714Y-112334342D01*
X122285714Y-112334342D02*
X122238095Y-112429580D01*
X122238095Y-112429580D02*
X122190476Y-112477200D01*
X122190476Y-112477200D02*
X122095238Y-112524819D01*
X122095238Y-112524819D02*
X121809524Y-112524819D01*
X121809524Y-112524819D02*
X121714286Y-112477200D01*
X121714286Y-112477200D02*
X121666667Y-112429580D01*
X135838333Y-87694580D02*
X135790714Y-87742200D01*
X135790714Y-87742200D02*
X135647857Y-87789819D01*
X135647857Y-87789819D02*
X135552619Y-87789819D01*
X135552619Y-87789819D02*
X135409762Y-87742200D01*
X135409762Y-87742200D02*
X135314524Y-87646961D01*
X135314524Y-87646961D02*
X135266905Y-87551723D01*
X135266905Y-87551723D02*
X135219286Y-87361247D01*
X135219286Y-87361247D02*
X135219286Y-87218390D01*
X135219286Y-87218390D02*
X135266905Y-87027914D01*
X135266905Y-87027914D02*
X135314524Y-86932676D01*
X135314524Y-86932676D02*
X135409762Y-86837438D01*
X135409762Y-86837438D02*
X135552619Y-86789819D01*
X135552619Y-86789819D02*
X135647857Y-86789819D01*
X135647857Y-86789819D02*
X135790714Y-86837438D01*
X135790714Y-86837438D02*
X135838333Y-86885057D01*
X136695476Y-86789819D02*
X136505000Y-86789819D01*
X136505000Y-86789819D02*
X136409762Y-86837438D01*
X136409762Y-86837438D02*
X136362143Y-86885057D01*
X136362143Y-86885057D02*
X136266905Y-87027914D01*
X136266905Y-87027914D02*
X136219286Y-87218390D01*
X136219286Y-87218390D02*
X136219286Y-87599342D01*
X136219286Y-87599342D02*
X136266905Y-87694580D01*
X136266905Y-87694580D02*
X136314524Y-87742200D01*
X136314524Y-87742200D02*
X136409762Y-87789819D01*
X136409762Y-87789819D02*
X136600238Y-87789819D01*
X136600238Y-87789819D02*
X136695476Y-87742200D01*
X136695476Y-87742200D02*
X136743095Y-87694580D01*
X136743095Y-87694580D02*
X136790714Y-87599342D01*
X136790714Y-87599342D02*
X136790714Y-87361247D01*
X136790714Y-87361247D02*
X136743095Y-87266009D01*
X136743095Y-87266009D02*
X136695476Y-87218390D01*
X136695476Y-87218390D02*
X136600238Y-87170771D01*
X136600238Y-87170771D02*
X136409762Y-87170771D01*
X136409762Y-87170771D02*
X136314524Y-87218390D01*
X136314524Y-87218390D02*
X136266905Y-87266009D01*
X136266905Y-87266009D02*
X136219286Y-87361247D01*
X125333333Y-121429580D02*
X125285714Y-121477200D01*
X125285714Y-121477200D02*
X125142857Y-121524819D01*
X125142857Y-121524819D02*
X125047619Y-121524819D01*
X125047619Y-121524819D02*
X124904762Y-121477200D01*
X124904762Y-121477200D02*
X124809524Y-121381961D01*
X124809524Y-121381961D02*
X124761905Y-121286723D01*
X124761905Y-121286723D02*
X124714286Y-121096247D01*
X124714286Y-121096247D02*
X124714286Y-120953390D01*
X124714286Y-120953390D02*
X124761905Y-120762914D01*
X124761905Y-120762914D02*
X124809524Y-120667676D01*
X124809524Y-120667676D02*
X124904762Y-120572438D01*
X124904762Y-120572438D02*
X125047619Y-120524819D01*
X125047619Y-120524819D02*
X125142857Y-120524819D01*
X125142857Y-120524819D02*
X125285714Y-120572438D01*
X125285714Y-120572438D02*
X125333333Y-120620057D01*
X126285714Y-121524819D02*
X125714286Y-121524819D01*
X126000000Y-121524819D02*
X126000000Y-120524819D01*
X126000000Y-120524819D02*
X125904762Y-120667676D01*
X125904762Y-120667676D02*
X125809524Y-120762914D01*
X125809524Y-120762914D02*
X125714286Y-120810533D01*
X135838333Y-97829819D02*
X135505000Y-97353628D01*
X135266905Y-97829819D02*
X135266905Y-96829819D01*
X135266905Y-96829819D02*
X135647857Y-96829819D01*
X135647857Y-96829819D02*
X135743095Y-96877438D01*
X135743095Y-96877438D02*
X135790714Y-96925057D01*
X135790714Y-96925057D02*
X135838333Y-97020295D01*
X135838333Y-97020295D02*
X135838333Y-97163152D01*
X135838333Y-97163152D02*
X135790714Y-97258390D01*
X135790714Y-97258390D02*
X135743095Y-97306009D01*
X135743095Y-97306009D02*
X135647857Y-97353628D01*
X135647857Y-97353628D02*
X135266905Y-97353628D01*
X136695476Y-96829819D02*
X136505000Y-96829819D01*
X136505000Y-96829819D02*
X136409762Y-96877438D01*
X136409762Y-96877438D02*
X136362143Y-96925057D01*
X136362143Y-96925057D02*
X136266905Y-97067914D01*
X136266905Y-97067914D02*
X136219286Y-97258390D01*
X136219286Y-97258390D02*
X136219286Y-97639342D01*
X136219286Y-97639342D02*
X136266905Y-97734580D01*
X136266905Y-97734580D02*
X136314524Y-97782200D01*
X136314524Y-97782200D02*
X136409762Y-97829819D01*
X136409762Y-97829819D02*
X136600238Y-97829819D01*
X136600238Y-97829819D02*
X136695476Y-97782200D01*
X136695476Y-97782200D02*
X136743095Y-97734580D01*
X136743095Y-97734580D02*
X136790714Y-97639342D01*
X136790714Y-97639342D02*
X136790714Y-97401247D01*
X136790714Y-97401247D02*
X136743095Y-97306009D01*
X136743095Y-97306009D02*
X136695476Y-97258390D01*
X136695476Y-97258390D02*
X136600238Y-97210771D01*
X136600238Y-97210771D02*
X136409762Y-97210771D01*
X136409762Y-97210771D02*
X136314524Y-97258390D01*
X136314524Y-97258390D02*
X136266905Y-97306009D01*
X136266905Y-97306009D02*
X136219286Y-97401247D01*
X115658333Y-117524819D02*
X115325000Y-117048628D01*
X115086905Y-117524819D02*
X115086905Y-116524819D01*
X115086905Y-116524819D02*
X115467857Y-116524819D01*
X115467857Y-116524819D02*
X115563095Y-116572438D01*
X115563095Y-116572438D02*
X115610714Y-116620057D01*
X115610714Y-116620057D02*
X115658333Y-116715295D01*
X115658333Y-116715295D02*
X115658333Y-116858152D01*
X115658333Y-116858152D02*
X115610714Y-116953390D01*
X115610714Y-116953390D02*
X115563095Y-117001009D01*
X115563095Y-117001009D02*
X115467857Y-117048628D01*
X115467857Y-117048628D02*
X115086905Y-117048628D01*
X116039286Y-116620057D02*
X116086905Y-116572438D01*
X116086905Y-116572438D02*
X116182143Y-116524819D01*
X116182143Y-116524819D02*
X116420238Y-116524819D01*
X116420238Y-116524819D02*
X116515476Y-116572438D01*
X116515476Y-116572438D02*
X116563095Y-116620057D01*
X116563095Y-116620057D02*
X116610714Y-116715295D01*
X116610714Y-116715295D02*
X116610714Y-116810533D01*
X116610714Y-116810533D02*
X116563095Y-116953390D01*
X116563095Y-116953390D02*
X115991667Y-117524819D01*
X115991667Y-117524819D02*
X116610714Y-117524819D01*
X135838333Y-85184580D02*
X135790714Y-85232200D01*
X135790714Y-85232200D02*
X135647857Y-85279819D01*
X135647857Y-85279819D02*
X135552619Y-85279819D01*
X135552619Y-85279819D02*
X135409762Y-85232200D01*
X135409762Y-85232200D02*
X135314524Y-85136961D01*
X135314524Y-85136961D02*
X135266905Y-85041723D01*
X135266905Y-85041723D02*
X135219286Y-84851247D01*
X135219286Y-84851247D02*
X135219286Y-84708390D01*
X135219286Y-84708390D02*
X135266905Y-84517914D01*
X135266905Y-84517914D02*
X135314524Y-84422676D01*
X135314524Y-84422676D02*
X135409762Y-84327438D01*
X135409762Y-84327438D02*
X135552619Y-84279819D01*
X135552619Y-84279819D02*
X135647857Y-84279819D01*
X135647857Y-84279819D02*
X135790714Y-84327438D01*
X135790714Y-84327438D02*
X135838333Y-84375057D01*
X136743095Y-84279819D02*
X136266905Y-84279819D01*
X136266905Y-84279819D02*
X136219286Y-84756009D01*
X136219286Y-84756009D02*
X136266905Y-84708390D01*
X136266905Y-84708390D02*
X136362143Y-84660771D01*
X136362143Y-84660771D02*
X136600238Y-84660771D01*
X136600238Y-84660771D02*
X136695476Y-84708390D01*
X136695476Y-84708390D02*
X136743095Y-84756009D01*
X136743095Y-84756009D02*
X136790714Y-84851247D01*
X136790714Y-84851247D02*
X136790714Y-85089342D01*
X136790714Y-85089342D02*
X136743095Y-85184580D01*
X136743095Y-85184580D02*
X136695476Y-85232200D01*
X136695476Y-85232200D02*
X136600238Y-85279819D01*
X136600238Y-85279819D02*
X136362143Y-85279819D01*
X136362143Y-85279819D02*
X136266905Y-85232200D01*
X136266905Y-85232200D02*
X136219286Y-85184580D01*
X135838333Y-90204580D02*
X135790714Y-90252200D01*
X135790714Y-90252200D02*
X135647857Y-90299819D01*
X135647857Y-90299819D02*
X135552619Y-90299819D01*
X135552619Y-90299819D02*
X135409762Y-90252200D01*
X135409762Y-90252200D02*
X135314524Y-90156961D01*
X135314524Y-90156961D02*
X135266905Y-90061723D01*
X135266905Y-90061723D02*
X135219286Y-89871247D01*
X135219286Y-89871247D02*
X135219286Y-89728390D01*
X135219286Y-89728390D02*
X135266905Y-89537914D01*
X135266905Y-89537914D02*
X135314524Y-89442676D01*
X135314524Y-89442676D02*
X135409762Y-89347438D01*
X135409762Y-89347438D02*
X135552619Y-89299819D01*
X135552619Y-89299819D02*
X135647857Y-89299819D01*
X135647857Y-89299819D02*
X135790714Y-89347438D01*
X135790714Y-89347438D02*
X135838333Y-89395057D01*
X136171667Y-89299819D02*
X136838333Y-89299819D01*
X136838333Y-89299819D02*
X136409762Y-90299819D01*
X135838333Y-92809819D02*
X135505000Y-92333628D01*
X135266905Y-92809819D02*
X135266905Y-91809819D01*
X135266905Y-91809819D02*
X135647857Y-91809819D01*
X135647857Y-91809819D02*
X135743095Y-91857438D01*
X135743095Y-91857438D02*
X135790714Y-91905057D01*
X135790714Y-91905057D02*
X135838333Y-92000295D01*
X135838333Y-92000295D02*
X135838333Y-92143152D01*
X135838333Y-92143152D02*
X135790714Y-92238390D01*
X135790714Y-92238390D02*
X135743095Y-92286009D01*
X135743095Y-92286009D02*
X135647857Y-92333628D01*
X135647857Y-92333628D02*
X135266905Y-92333628D01*
X136695476Y-92143152D02*
X136695476Y-92809819D01*
X136457381Y-91762200D02*
X136219286Y-92476485D01*
X136219286Y-92476485D02*
X136838333Y-92476485D01*
X135838333Y-95319819D02*
X135505000Y-94843628D01*
X135266905Y-95319819D02*
X135266905Y-94319819D01*
X135266905Y-94319819D02*
X135647857Y-94319819D01*
X135647857Y-94319819D02*
X135743095Y-94367438D01*
X135743095Y-94367438D02*
X135790714Y-94415057D01*
X135790714Y-94415057D02*
X135838333Y-94510295D01*
X135838333Y-94510295D02*
X135838333Y-94653152D01*
X135838333Y-94653152D02*
X135790714Y-94748390D01*
X135790714Y-94748390D02*
X135743095Y-94796009D01*
X135743095Y-94796009D02*
X135647857Y-94843628D01*
X135647857Y-94843628D02*
X135266905Y-94843628D01*
X136743095Y-94319819D02*
X136266905Y-94319819D01*
X136266905Y-94319819D02*
X136219286Y-94796009D01*
X136219286Y-94796009D02*
X136266905Y-94748390D01*
X136266905Y-94748390D02*
X136362143Y-94700771D01*
X136362143Y-94700771D02*
X136600238Y-94700771D01*
X136600238Y-94700771D02*
X136695476Y-94748390D01*
X136695476Y-94748390D02*
X136743095Y-94796009D01*
X136743095Y-94796009D02*
X136790714Y-94891247D01*
X136790714Y-94891247D02*
X136790714Y-95129342D01*
X136790714Y-95129342D02*
X136743095Y-95224580D01*
X136743095Y-95224580D02*
X136695476Y-95272200D01*
X136695476Y-95272200D02*
X136600238Y-95319819D01*
X136600238Y-95319819D02*
X136362143Y-95319819D01*
X136362143Y-95319819D02*
X136266905Y-95272200D01*
X136266905Y-95272200D02*
X136219286Y-95224580D01*
X115658333Y-122024819D02*
X115325000Y-121548628D01*
X115086905Y-122024819D02*
X115086905Y-121024819D01*
X115086905Y-121024819D02*
X115467857Y-121024819D01*
X115467857Y-121024819D02*
X115563095Y-121072438D01*
X115563095Y-121072438D02*
X115610714Y-121120057D01*
X115610714Y-121120057D02*
X115658333Y-121215295D01*
X115658333Y-121215295D02*
X115658333Y-121358152D01*
X115658333Y-121358152D02*
X115610714Y-121453390D01*
X115610714Y-121453390D02*
X115563095Y-121501009D01*
X115563095Y-121501009D02*
X115467857Y-121548628D01*
X115467857Y-121548628D02*
X115086905Y-121548628D01*
X115991667Y-121024819D02*
X116610714Y-121024819D01*
X116610714Y-121024819D02*
X116277381Y-121405771D01*
X116277381Y-121405771D02*
X116420238Y-121405771D01*
X116420238Y-121405771D02*
X116515476Y-121453390D01*
X116515476Y-121453390D02*
X116563095Y-121501009D01*
X116563095Y-121501009D02*
X116610714Y-121596247D01*
X116610714Y-121596247D02*
X116610714Y-121834342D01*
X116610714Y-121834342D02*
X116563095Y-121929580D01*
X116563095Y-121929580D02*
X116515476Y-121977200D01*
X116515476Y-121977200D02*
X116420238Y-122024819D01*
X116420238Y-122024819D02*
X116134524Y-122024819D01*
X116134524Y-122024819D02*
X116039286Y-121977200D01*
X116039286Y-121977200D02*
X115991667Y-121929580D01*
X124963095Y-114004819D02*
X124963095Y-114814342D01*
X124963095Y-114814342D02*
X125010714Y-114909580D01*
X125010714Y-114909580D02*
X125058333Y-114957200D01*
X125058333Y-114957200D02*
X125153571Y-115004819D01*
X125153571Y-115004819D02*
X125344047Y-115004819D01*
X125344047Y-115004819D02*
X125439285Y-114957200D01*
X125439285Y-114957200D02*
X125486904Y-114909580D01*
X125486904Y-114909580D02*
X125534523Y-114814342D01*
X125534523Y-114814342D02*
X125534523Y-114004819D01*
X125963095Y-114100057D02*
X126010714Y-114052438D01*
X126010714Y-114052438D02*
X126105952Y-114004819D01*
X126105952Y-114004819D02*
X126344047Y-114004819D01*
X126344047Y-114004819D02*
X126439285Y-114052438D01*
X126439285Y-114052438D02*
X126486904Y-114100057D01*
X126486904Y-114100057D02*
X126534523Y-114195295D01*
X126534523Y-114195295D02*
X126534523Y-114290533D01*
X126534523Y-114290533D02*
X126486904Y-114433390D01*
X126486904Y-114433390D02*
X125915476Y-115004819D01*
X125915476Y-115004819D02*
X126534523Y-115004819D01*
X135838333Y-102849819D02*
X135505000Y-102373628D01*
X135266905Y-102849819D02*
X135266905Y-101849819D01*
X135266905Y-101849819D02*
X135647857Y-101849819D01*
X135647857Y-101849819D02*
X135743095Y-101897438D01*
X135743095Y-101897438D02*
X135790714Y-101945057D01*
X135790714Y-101945057D02*
X135838333Y-102040295D01*
X135838333Y-102040295D02*
X135838333Y-102183152D01*
X135838333Y-102183152D02*
X135790714Y-102278390D01*
X135790714Y-102278390D02*
X135743095Y-102326009D01*
X135743095Y-102326009D02*
X135647857Y-102373628D01*
X135647857Y-102373628D02*
X135266905Y-102373628D01*
X136314524Y-102849819D02*
X136505000Y-102849819D01*
X136505000Y-102849819D02*
X136600238Y-102802200D01*
X136600238Y-102802200D02*
X136647857Y-102754580D01*
X136647857Y-102754580D02*
X136743095Y-102611723D01*
X136743095Y-102611723D02*
X136790714Y-102421247D01*
X136790714Y-102421247D02*
X136790714Y-102040295D01*
X136790714Y-102040295D02*
X136743095Y-101945057D01*
X136743095Y-101945057D02*
X136695476Y-101897438D01*
X136695476Y-101897438D02*
X136600238Y-101849819D01*
X136600238Y-101849819D02*
X136409762Y-101849819D01*
X136409762Y-101849819D02*
X136314524Y-101897438D01*
X136314524Y-101897438D02*
X136266905Y-101945057D01*
X136266905Y-101945057D02*
X136219286Y-102040295D01*
X136219286Y-102040295D02*
X136219286Y-102278390D01*
X136219286Y-102278390D02*
X136266905Y-102373628D01*
X136266905Y-102373628D02*
X136314524Y-102421247D01*
X136314524Y-102421247D02*
X136409762Y-102468866D01*
X136409762Y-102468866D02*
X136600238Y-102468866D01*
X136600238Y-102468866D02*
X136695476Y-102421247D01*
X136695476Y-102421247D02*
X136743095Y-102373628D01*
X136743095Y-102373628D02*
X136790714Y-102278390D01*
X138757311Y-112100056D02*
X138662073Y-112052437D01*
X138662073Y-112052437D02*
X138566835Y-111957199D01*
X138566835Y-111957199D02*
X138423978Y-111814341D01*
X138423978Y-111814341D02*
X138328740Y-111766722D01*
X138328740Y-111766722D02*
X138233502Y-111766722D01*
X138281121Y-112004818D02*
X138185883Y-111957199D01*
X138185883Y-111957199D02*
X138090645Y-111861960D01*
X138090645Y-111861960D02*
X138043026Y-111671484D01*
X138043026Y-111671484D02*
X138043026Y-111338151D01*
X138043026Y-111338151D02*
X138090645Y-111147675D01*
X138090645Y-111147675D02*
X138185883Y-111052437D01*
X138185883Y-111052437D02*
X138281121Y-111004818D01*
X138281121Y-111004818D02*
X138471597Y-111004818D01*
X138471597Y-111004818D02*
X138566835Y-111052437D01*
X138566835Y-111052437D02*
X138662073Y-111147675D01*
X138662073Y-111147675D02*
X138709692Y-111338151D01*
X138709692Y-111338151D02*
X138709692Y-111671484D01*
X138709692Y-111671484D02*
X138662073Y-111861960D01*
X138662073Y-111861960D02*
X138566835Y-111957199D01*
X138566835Y-111957199D02*
X138471597Y-112004818D01*
X138471597Y-112004818D02*
X138281121Y-112004818D01*
X139662073Y-112004818D02*
X139090645Y-112004818D01*
X139376359Y-112004818D02*
X139376359Y-111004818D01*
X139376359Y-111004818D02*
X139281121Y-111147675D01*
X139281121Y-111147675D02*
X139185883Y-111242913D01*
X139185883Y-111242913D02*
X139090645Y-111290532D01*
X137246000Y-108353018D02*
X137246000Y-108591113D01*
X137007905Y-108495875D02*
X137246000Y-108591113D01*
X137246000Y-108591113D02*
X137484095Y-108495875D01*
X137103143Y-108781589D02*
X137246000Y-108591113D01*
X137246000Y-108591113D02*
X137388857Y-108781589D01*
X137246000Y-108353018D02*
X137246000Y-108591113D01*
X137007905Y-108495875D02*
X137246000Y-108591113D01*
X137246000Y-108591113D02*
X137484095Y-108495875D01*
X137103143Y-108781589D02*
X137246000Y-108591113D01*
X137246000Y-108591113D02*
X137388857Y-108781589D01*
X148554819Y-89583333D02*
X149269104Y-89583333D01*
X149269104Y-89583333D02*
X149411961Y-89630952D01*
X149411961Y-89630952D02*
X149507200Y-89726190D01*
X149507200Y-89726190D02*
X149554819Y-89869047D01*
X149554819Y-89869047D02*
X149554819Y-89964285D01*
X149554819Y-88583333D02*
X149554819Y-89154761D01*
X149554819Y-88869047D02*
X148554819Y-88869047D01*
X148554819Y-88869047D02*
X148697676Y-88964285D01*
X148697676Y-88964285D02*
X148792914Y-89059523D01*
X148792914Y-89059523D02*
X148840533Y-89154761D01*
X115388095Y-110504819D02*
X115388095Y-111314342D01*
X115388095Y-111314342D02*
X115435714Y-111409580D01*
X115435714Y-111409580D02*
X115483333Y-111457200D01*
X115483333Y-111457200D02*
X115578571Y-111504819D01*
X115578571Y-111504819D02*
X115769047Y-111504819D01*
X115769047Y-111504819D02*
X115864285Y-111457200D01*
X115864285Y-111457200D02*
X115911904Y-111409580D01*
X115911904Y-111409580D02*
X115959523Y-111314342D01*
X115959523Y-111314342D02*
X115959523Y-110504819D01*
X116864285Y-110838152D02*
X116864285Y-111504819D01*
X116626190Y-110457200D02*
X116388095Y-111171485D01*
X116388095Y-111171485D02*
X117007142Y-111171485D01*
D12*
%TO.C,U5*%
X141375000Y-96935000D02*
X141135000Y-96605000D01*
X141615000Y-96605000D01*
X141375000Y-96935000D01*
G36*
X141375000Y-96935000D02*
G01*
X141135000Y-96605000D01*
X141615000Y-96605000D01*
X141375000Y-96935000D01*
G37*
X146035000Y-101965000D02*
X141915000Y-101965000D01*
X146035000Y-101870000D02*
X146035000Y-101965000D01*
X146035000Y-96845000D02*
X146035000Y-96940000D01*
X141915000Y-101965000D02*
X141915000Y-101870000D01*
X141915000Y-96940000D02*
X141915000Y-96845000D01*
X141915000Y-96845000D02*
X146035000Y-96845000D01*
%TO.C,U1*%
D13*
X114530000Y-87706500D02*
G75*
G02*
X114026000Y-87706500I-252000J0D01*
G01*
X114026000Y-87706500D02*
G75*
G02*
X114530000Y-87706500I252000J0D01*
G01*
X113256000Y-86989500D02*
G75*
G02*
X112752000Y-86989500I-252000J0D01*
G01*
X112752000Y-86989500D02*
G75*
G02*
X113256000Y-86989500I252000J0D01*
G01*
D14*
X130994000Y-105623500D02*
G75*
G02*
X129089000Y-107528500I-1905000J0D01*
G01*
X129089000Y-86573500D02*
G75*
G02*
X130994000Y-88478500I0J-1905000D01*
G01*
D15*
X126108000Y-85063500D02*
G75*
G02*
X126608000Y-85563500I0J-500000D01*
G01*
X117612728Y-85563228D02*
G75*
G02*
X118112728Y-85063498I500022J-292D01*
G01*
D14*
X115119000Y-107528500D02*
G75*
G02*
X113214000Y-105623500I0J1905000D01*
G01*
X113214000Y-88474500D02*
G75*
G02*
X115119000Y-86569500I1905001J-1D01*
G01*
X130994000Y-105623500D02*
X130994000Y-88478500D01*
X129089000Y-86573500D02*
X115119000Y-86573500D01*
D15*
X126608000Y-85563500D02*
X126608000Y-86573500D01*
X118112728Y-85063500D02*
X126108000Y-85063500D01*
X117609000Y-86573500D02*
X117612728Y-85563228D01*
D14*
X115119000Y-107528500D02*
X129089000Y-107528500D01*
X113214000Y-105623500D02*
X113214000Y-88478500D01*
%TO.C,R1*%
D12*
X128285436Y-113710000D02*
X132639564Y-113710000D01*
X128285436Y-110290000D02*
X132639564Y-110290000D01*
%TO.C,BT1*%
X144300000Y-120050000D02*
X145300000Y-120050000D01*
X145300000Y-121650000D01*
X144300000Y-121650000D01*
X144300000Y-120050000D01*
X140700000Y-120050000D02*
X141700000Y-120050000D01*
X141700000Y-121650000D01*
X140700000Y-121650000D01*
X140700000Y-120050000D01*
X146060000Y-123910000D02*
X146060000Y-116090000D01*
X146060000Y-117690000D02*
X145140000Y-117690000D01*
X146060000Y-116090000D02*
X145140000Y-116090000D01*
X145140000Y-117690000D02*
X144860000Y-117690000D01*
X145140000Y-116090000D02*
X145140000Y-117690000D01*
X143500000Y-119550000D02*
X143500000Y-123910000D01*
X142500000Y-123910000D02*
X142500000Y-119550000D01*
X142500000Y-119550000D02*
X143500000Y-119550000D01*
X141700000Y-121650000D02*
X141700000Y-123910000D01*
X141200000Y-121650000D02*
X141200000Y-123910000D01*
X141140000Y-117690000D02*
X141140000Y-116475000D01*
X141140000Y-117690000D02*
X140860000Y-117690000D01*
X140860000Y-117690000D02*
X140860000Y-116090000D01*
X140860000Y-116090000D02*
X139940000Y-116090000D01*
X139940000Y-123910000D02*
X146060000Y-123910000D01*
X139940000Y-117690000D02*
X140860000Y-117690000D01*
X139940000Y-116090000D02*
X139940000Y-123910000D01*
%TO.C,U3*%
X144490000Y-106227500D02*
X144540000Y-106227500D01*
X144490000Y-108047500D02*
X144490000Y-106227500D01*
X144540000Y-108047500D02*
X144490000Y-108047500D01*
X147560000Y-106227500D02*
X147610000Y-106227500D01*
X147610000Y-106227500D02*
X147610000Y-108047500D01*
X147610000Y-108047500D02*
X147560000Y-108047500D01*
X147560000Y-105687500D02*
X147890000Y-105447500D01*
X147890000Y-105927500D01*
X147560000Y-105687500D01*
G36*
X147890000Y-105927500D02*
G01*
X147560000Y-105687500D01*
X147890000Y-105447500D01*
X147890000Y-105927500D01*
G37*
%TO.C,R7*%
X135767742Y-100792500D02*
X136242258Y-100792500D01*
X135767742Y-101837500D02*
X136242258Y-101837500D01*
%TO.C,C2*%
X129859420Y-121990000D02*
X130140580Y-121990000D01*
X129859420Y-123010000D02*
X130140580Y-123010000D01*
%TO.C,C3*%
X121359420Y-112990000D02*
X121640580Y-112990000D01*
X121359420Y-114010000D02*
X121640580Y-114010000D01*
%TO.C,C6*%
X135864420Y-88255000D02*
X136145580Y-88255000D01*
X135864420Y-89275000D02*
X136145580Y-89275000D01*
%TO.C,C1*%
X125359420Y-121990000D02*
X125640580Y-121990000D01*
X125359420Y-123010000D02*
X125640580Y-123010000D01*
%TO.C,R6*%
X135767742Y-98282500D02*
X136242258Y-98282500D01*
X135767742Y-99327500D02*
X136242258Y-99327500D01*
%TO.C,R2*%
X115587742Y-117977500D02*
X116062258Y-117977500D01*
X115587742Y-119022500D02*
X116062258Y-119022500D01*
%TO.C,C5*%
X135864420Y-85745000D02*
X136145580Y-85745000D01*
X135864420Y-86765000D02*
X136145580Y-86765000D01*
%TO.C,C7*%
X135864420Y-90765000D02*
X136145580Y-90765000D01*
X135864420Y-91785000D02*
X136145580Y-91785000D01*
%TO.C,R4*%
X135767742Y-93262500D02*
X136242258Y-93262500D01*
X135767742Y-94307500D02*
X136242258Y-94307500D01*
%TO.C,R5*%
X135767742Y-95772500D02*
X136242258Y-95772500D01*
X135767742Y-96817500D02*
X136242258Y-96817500D01*
%TO.C,R3*%
X115587742Y-122477500D02*
X116062258Y-122477500D01*
X115587742Y-123522500D02*
X116062258Y-123522500D01*
%TO.C,U2*%
X124115000Y-115390000D02*
X124790000Y-115390000D01*
X124115000Y-115565000D02*
X124115000Y-115390000D01*
X124115000Y-118610000D02*
X124115000Y-118435000D01*
X124790000Y-118610000D02*
X124115000Y-118610000D01*
X126660000Y-115390000D02*
X127335000Y-115390000D01*
X127335000Y-115390000D02*
X127335000Y-115565000D01*
X127335000Y-118435000D02*
X127335000Y-118610000D01*
X127335000Y-118610000D02*
X126660000Y-118610000D01*
X123965000Y-116000000D02*
X123635000Y-116240000D01*
X123635000Y-115760000D01*
X123965000Y-116000000D01*
G36*
X123965000Y-116000000D02*
G01*
X123635000Y-116240000D01*
X123635000Y-115760000D01*
X123965000Y-116000000D01*
G37*
%TO.C,R9*%
X135767742Y-103302500D02*
X136242258Y-103302500D01*
X135767742Y-104347500D02*
X136242258Y-104347500D01*
%TO.C,Q1*%
D16*
X137874650Y-113226399D02*
X139830450Y-113226399D01*
X139830450Y-109873599D02*
X137874650Y-109873599D01*
%TO.C,J1*%
D12*
X145355000Y-84550000D02*
X143355000Y-84550000D01*
X141455000Y-84550000D02*
X139555000Y-84550000D01*
X139555000Y-84550000D02*
X139555000Y-93950000D01*
X145355000Y-93950000D02*
X143355000Y-93950000D01*
X141455000Y-93950000D02*
X139555000Y-93950000D01*
%TO.C,U4*%
X114540000Y-111890000D02*
X117760000Y-111890000D01*
X114540000Y-112065000D02*
X114540000Y-111890000D01*
X114540000Y-115110000D02*
X114540000Y-114935000D01*
X117760000Y-111890000D02*
X117760000Y-112065000D01*
X117760000Y-114935000D02*
X117760000Y-115110000D01*
X117760000Y-115110000D02*
X114540000Y-115110000D01*
X113990000Y-112060000D02*
X113750000Y-111730000D01*
X114230000Y-111730000D01*
X113990000Y-112060000D01*
G36*
X113990000Y-112060000D02*
G01*
X113750000Y-111730000D01*
X114230000Y-111730000D01*
X113990000Y-112060000D01*
G37*
%TD*%
M02*
