%TF.GenerationSoftware,KiCad,Pcbnew,10.0.6-1.fc44*%
%TF.CreationDate,2026-09-23T16:56:23+05:30*%
%TF.ProjectId,tracker,74726163-6b65-4722-9e6b-696361645f70,rev?*%
%TF.SameCoordinates,Original*%
%TF.FileFunction,Soldermask,Top*%
%TF.FilePolarity,Negative*%
%FSLAX46Y46*%
G04 Gerber Fmt 4.6, Leading zero omitted, Abs format (unit mm)*
G04 Created by KiCad (PCBNEW 10.0.6-1.fc44) date 2026-09-23 16:56:23*
%MOMM*%
%LPD*%
G01*
G04 APERTURE LIST*
G04 Aperture macros list*
%AMRoundRect*
0 Rectangle with rounded corners*
0 $1 Rounding radius*
0 $2 $3 $4 $5 $6 $7 $8 $9 X,Y pos of 4 corners*
0 Add a 4 corners polygon primitive as box body*
4,1,4,$2,$3,$4,$5,$6,$7,$8,$9,$2,$3,0*
0 Add four circle primitives for the rounded corners*
1,1,$1+$1,$2,$3*
1,1,$1+$1,$4,$5*
1,1,$1+$1,$6,$7*
1,1,$1+$1,$8,$9*
0 Add four rect primitives between the rounded corners*
20,1,$1+$1,$2,$3,$4,$5,0*
20,1,$1+$1,$4,$5,$6,$7,0*
20,1,$1+$1,$6,$7,$8,$9,0*
20,1,$1+$1,$8,$9,$2,$3,0*%
G04 Aperture macros list end*
%ADD10R,1.003300X0.558800*%
%ADD11RoundRect,0.150000X0.512500X0.150000X-0.512500X0.150000X-0.512500X-0.150000X0.512500X-0.150000X0*%
%ADD12RoundRect,0.150000X0.150000X-0.825000X0.150000X0.825000X-0.150000X0.825000X-0.150000X-0.825000X0*%
%ADD13R,3.300000X2.410000*%
%ADD14RoundRect,0.550800X-0.875000X-0.500000X0.875000X-0.500000X0.875000X0.500000X-0.875000X0.500000X0*%
%ADD15C,1.700000*%
%ADD16RoundRect,0.275000X-0.275000X0.975000X-0.275000X-0.975000X0.275000X-0.975000X0.275000X0.975000X0*%
%ADD17RoundRect,0.200000X-0.200000X-0.275000X0.200000X-0.275000X0.200000X0.275000X-0.200000X0.275000X0*%
%ADD18RoundRect,0.225000X0.225000X0.250000X-0.225000X0.250000X-0.225000X-0.250000X0.225000X-0.250000X0*%
%ADD19RoundRect,0.225000X-0.250000X0.225000X-0.250000X-0.225000X0.250000X-0.225000X0.250000X0.225000X0*%
%ADD20RoundRect,0.225000X0.250000X-0.225000X0.250000X0.225000X-0.250000X0.225000X-0.250000X-0.225000X0*%
%ADD21RoundRect,0.175000X-0.175000X-0.425000X0.175000X-0.425000X0.175000X0.425000X-0.175000X0.425000X0*%
%ADD22RoundRect,0.190000X0.190000X0.410000X-0.190000X0.410000X-0.190000X-0.410000X0.190000X-0.410000X0*%
%ADD23RoundRect,0.200000X0.200000X0.400000X-0.200000X0.400000X-0.200000X-0.400000X0.200000X-0.400000X0*%
%ADD24RoundRect,0.175000X0.175000X0.425000X-0.175000X0.425000X-0.175000X-0.425000X0.175000X-0.425000X0*%
%ADD25RoundRect,0.190000X-0.190000X-0.410000X0.190000X-0.410000X0.190000X0.410000X-0.190000X0.410000X0*%
%ADD26RoundRect,0.200000X-0.200000X-0.400000X0.200000X-0.400000X0.200000X0.400000X-0.200000X0.400000X0*%
%ADD27O,1.100000X1.700000*%
%ADD28RoundRect,0.200000X0.200000X0.275000X-0.200000X0.275000X-0.200000X-0.275000X0.200000X-0.275000X0*%
%ADD29RoundRect,0.218750X0.256250X-0.218750X0.256250X0.218750X-0.256250X0.218750X-0.256250X-0.218750X0*%
%ADD30RoundRect,0.250000X1.425000X-0.362500X1.425000X0.362500X-1.425000X0.362500X-1.425000X-0.362500X0*%
%ADD31RoundRect,0.087500X-0.087500X0.662500X-0.087500X-0.662500X0.087500X-0.662500X0.087500X0.662500X0*%
%ADD32RoundRect,0.200000X-0.275000X0.200000X-0.275000X-0.200000X0.275000X-0.200000X0.275000X0.200000X0*%
%ADD33RoundRect,0.200000X0.275000X-0.200000X0.275000X0.200000X-0.275000X0.200000X-0.275000X-0.200000X0*%
%ADD34RoundRect,0.250000X-0.350000X-0.625000X0.350000X-0.625000X0.350000X0.625000X-0.350000X0.625000X0*%
%ADD35O,1.200000X1.750000*%
%ADD36RoundRect,0.087500X0.187500X0.087500X-0.187500X0.087500X-0.187500X-0.087500X0.187500X-0.087500X0*%
%ADD37RoundRect,0.087500X0.087500X0.187500X-0.087500X0.187500X-0.087500X-0.187500X0.087500X-0.187500X0*%
G04 APERTURE END LIST*
D10*
%TO.C,Q1*%
X159302551Y-112197449D03*
X159302551Y-113147450D03*
X159302551Y-114097451D03*
X156597451Y-114097451D03*
X156597451Y-113147450D03*
X156597451Y-112197449D03*
%TD*%
D11*
%TO.C,U3*%
X158137500Y-104450000D03*
X158137500Y-103500000D03*
X158137500Y-102550000D03*
X155862500Y-102550000D03*
X155862500Y-103500000D03*
X155862500Y-104450000D03*
%TD*%
D12*
%TO.C,U5*%
X141270000Y-97595000D03*
X142540000Y-97595000D03*
X143810000Y-97595000D03*
X145080000Y-97595000D03*
X145080000Y-92645000D03*
X143810000Y-92645000D03*
X142540000Y-92645000D03*
X141270000Y-92645000D03*
D13*
X143175000Y-95120000D03*
%TD*%
D14*
%TO.C,U1*%
X112186400Y-81348300D03*
X112186400Y-83888300D03*
X112186400Y-86428300D03*
X112186400Y-88968300D03*
X112186400Y-91508300D03*
X112186400Y-94048300D03*
X112186400Y-96588300D03*
X128351400Y-96588300D03*
X128351400Y-94048300D03*
X128351400Y-91508300D03*
X128351400Y-88968300D03*
X128351400Y-86428300D03*
X128351400Y-83888300D03*
X128351400Y-81348300D03*
D15*
X118968000Y-80326800D03*
X121508000Y-80326800D03*
X118968000Y-82866800D03*
X121508000Y-82866800D03*
X118968000Y-85406800D03*
X121508000Y-85406800D03*
X118968000Y-87946800D03*
X121415400Y-87890000D03*
D16*
X118460000Y-94500000D03*
X121000000Y-94500000D03*
%TD*%
D17*
%TO.C,R7*%
X150000000Y-103312500D03*
X151650000Y-103312500D03*
%TD*%
D18*
%TO.C,C2*%
X103000000Y-105500000D03*
X101450000Y-105500000D03*
%TD*%
D19*
%TO.C,C3*%
X119500000Y-121725000D03*
X119500000Y-123275000D03*
%TD*%
D20*
%TO.C,C6*%
X146000000Y-109275000D03*
X146000000Y-107725000D03*
%TD*%
D18*
%TO.C,C1*%
X103000000Y-101000000D03*
X101450000Y-101000000D03*
%TD*%
D21*
%TO.C,J1*%
X157500000Y-78500000D03*
D22*
X159520000Y-78500000D03*
D23*
X160750000Y-78500000D03*
D24*
X158500000Y-78500000D03*
D25*
X156480000Y-78500000D03*
D26*
X155250000Y-78500000D03*
D27*
X153680000Y-78580000D03*
X153680000Y-82380000D03*
X162320000Y-78580000D03*
X162320000Y-82380000D03*
%TD*%
D28*
%TO.C,R6*%
X150095000Y-90430000D03*
X148445000Y-90430000D03*
%TD*%
D29*
%TO.C,D1*%
X142040000Y-89773750D03*
X142040000Y-88198750D03*
%TD*%
D30*
%TO.C,R1*%
X133537500Y-116462500D03*
X133537500Y-110537500D03*
%TD*%
D31*
%TO.C,U4*%
X124500000Y-111400000D03*
X124000000Y-111400000D03*
X123500000Y-111400000D03*
X123000000Y-111400000D03*
X122500000Y-111400000D03*
X122500000Y-115600000D03*
X123000000Y-115600000D03*
X123500000Y-115600000D03*
X124000000Y-115600000D03*
X124500000Y-115600000D03*
%TD*%
D19*
%TO.C,C7*%
X152000000Y-108725000D03*
X152000000Y-110275000D03*
%TD*%
D32*
%TO.C,R4*%
X142500000Y-101695000D03*
X142500000Y-103345000D03*
%TD*%
%TO.C,R8*%
X142000000Y-84151250D03*
X142000000Y-85801250D03*
%TD*%
D28*
%TO.C,R5*%
X149825000Y-85000000D03*
X148175000Y-85000000D03*
%TD*%
D32*
%TO.C,R2*%
X110500000Y-119175000D03*
X110500000Y-120825000D03*
%TD*%
D29*
%TO.C,D2*%
X144630000Y-89773750D03*
X144630000Y-88198750D03*
%TD*%
D33*
%TO.C,R3*%
X104000000Y-124150000D03*
X104000000Y-122500000D03*
%TD*%
D34*
%TO.C,BT1*%
X141500000Y-115500000D03*
D35*
X143500000Y-115500000D03*
%TD*%
D36*
%TO.C,U2*%
X103225000Y-94725000D03*
X103225000Y-94225000D03*
X103225000Y-93725000D03*
X103225000Y-93225000D03*
X103225000Y-92725000D03*
D37*
X102500000Y-92500000D03*
X102000000Y-92500000D03*
X101500000Y-92500000D03*
D36*
X100775000Y-92725000D03*
X100775000Y-93225000D03*
X100775000Y-93725000D03*
X100775000Y-94225000D03*
X100775000Y-94725000D03*
D37*
X101500000Y-94950000D03*
X102000000Y-94950000D03*
X102500000Y-94950000D03*
%TD*%
D19*
%TO.C,C5*%
X158000000Y-88725000D03*
X158000000Y-90275000D03*
%TD*%
D32*
%TO.C,R10*%
X144510000Y-84151250D03*
X144510000Y-85801250D03*
%TD*%
%TO.C,R9*%
X157000000Y-107500000D03*
X157000000Y-109150000D03*
%TD*%
M02*
